<svg width="465" height="277" viewBox="0 0 465 277" fill="none" xmlns="http://www.w3.org/2000/svg">
<rect width="465" height="276.304" rx="10" fill="white"/>
<path d="M31.4669 28.6261C31.4133 28.1245 31.1873 27.7339 30.7891 27.4544C30.3947 27.1749 29.8816 27.0351 29.2498 27.0351C28.8057 27.0351 28.4247 27.1021 28.1069 27.2361C27.7891 27.3701 27.5459 27.552 27.3774 27.7818C27.209 28.0115 27.1228 28.2738 27.119 28.5686C27.119 28.8137 27.1745 29.0262 27.2855 29.2062C27.4004 29.3861 27.5555 29.5393 27.7508 29.6657C27.9461 29.7882 28.1624 29.8916 28.3998 29.9758C28.6372 30.06 28.8765 30.1309 29.1177 30.1883L30.2205 30.464C30.6647 30.5674 31.0916 30.7072 31.5013 30.8833C31.9149 31.0594 32.2844 31.2815 32.6098 31.5495C32.9391 31.8176 33.1995 32.1411 33.391 32.5202C33.5824 32.8993 33.6781 33.3435 33.6781 33.8527C33.6781 34.5419 33.502 35.1489 33.1497 35.6734C32.7975 36.1942 32.2882 36.602 31.6219 36.8968C30.9595 37.1878 30.1573 37.3333 29.2154 37.3333C28.3002 37.3333 27.5057 37.1916 26.8318 36.9083C26.1617 36.625 25.6371 36.2114 25.2581 35.6677C24.8828 35.124 24.6799 34.4615 24.6492 33.6804H26.7456C26.7763 34.0901 26.9026 34.4309 27.1247 34.7028C27.3468 34.9746 27.6359 35.1776 27.992 35.3116C28.3519 35.4456 28.754 35.5126 29.1982 35.5126C29.6615 35.5126 30.0673 35.4437 30.4158 35.3058C30.7681 35.1642 31.0438 34.9689 31.2429 34.72C31.442 34.4673 31.5434 34.1724 31.5473 33.8355C31.5434 33.5292 31.4535 33.2764 31.2773 33.0773C31.1012 32.8744 30.8542 32.7059 30.5364 32.5719C30.2224 32.4341 29.8548 32.3115 29.4336 32.2043L28.0954 31.8597C27.1266 31.6108 26.3608 31.2336 25.798 30.7282C25.2389 30.219 24.9594 29.5431 24.9594 28.7007C24.9594 28.0077 25.147 27.4008 25.5223 26.88C25.9013 26.3593 26.4163 25.9553 27.0673 25.6681C27.7182 25.3771 28.4553 25.2316 29.2786 25.2316C30.1133 25.2316 30.8446 25.3771 31.4726 25.6681C32.1044 25.9553 32.6003 26.3554 32.9602 26.8685C33.3201 27.3778 33.5058 27.9636 33.5173 28.6261H31.4669ZM35.4859 37.1553V28.3331H37.5651V37.1553H35.4859ZM36.5313 27.081C36.202 27.081 35.9186 26.9719 35.6812 26.7537C35.4438 26.5316 35.3251 26.2655 35.3251 25.9553C35.3251 25.6413 35.4438 25.3752 35.6812 25.1569C35.9186 24.9349 36.202 24.8238 36.5313 24.8238C36.8644 24.8238 37.1477 24.9349 37.3813 25.1569C37.6187 25.3752 37.7374 25.6413 37.7374 25.9553C37.7374 26.2655 37.6187 26.5316 37.3813 26.7537C37.1477 26.9719 36.8644 27.081 36.5313 27.081ZM44.1085 28.3331V29.9413H39.0369V28.3331H44.1085ZM40.289 26.2195H42.3682V34.5017C42.3682 34.7813 42.4103 34.9957 42.4945 35.145C42.5826 35.2905 42.6975 35.3901 42.8391 35.4437C42.9808 35.4973 43.1378 35.5241 43.3101 35.5241C43.4403 35.5241 43.559 35.5145 43.6662 35.4954C43.7773 35.4762 43.8615 35.459 43.9189 35.4437L44.2693 37.0691C44.1582 37.1074 43.9993 37.1495 43.7926 37.1955C43.5896 37.2414 43.3407 37.2682 43.0459 37.2759C42.5252 37.2912 42.0561 37.2127 41.6387 37.0404C41.2214 36.8643 40.8902 36.5924 40.6451 36.2248C40.4039 35.8572 40.2852 35.3977 40.289 34.8464V26.2195ZM49.6582 37.3276C48.7737 37.3276 48.0098 37.1438 47.3665 36.7762C46.7271 36.4048 46.235 35.8802 45.8904 35.2025C45.5458 34.5209 45.3735 33.7187 45.3735 32.7959C45.3735 31.8884 45.5458 31.092 45.8904 30.4066C46.2389 29.7173 46.7251 29.1813 47.3493 28.7984C47.9734 28.4116 48.7067 28.2183 49.5491 28.2183C50.0928 28.2183 50.6059 28.3063 51.0883 28.4825C51.5746 28.6548 52.0035 28.9228 52.3749 29.2866C52.7502 29.6503 53.045 30.1137 53.2594 30.6765C53.4738 31.2356 53.5811 31.9018 53.5811 32.6753V33.3128H46.3499V31.9114H51.588C51.5842 31.5132 51.4981 31.159 51.3296 30.8488C51.1611 30.5348 50.9256 30.2879 50.6231 30.1079C50.3245 29.9279 49.976 29.838 49.5778 29.838C49.1528 29.838 48.7794 29.9413 48.4578 30.1481C48.1361 30.3511 47.8853 30.6191 47.7054 30.9522C47.5292 31.2815 47.4393 31.6434 47.4354 32.0377V33.2611C47.4354 33.7742 47.5292 34.2146 47.7169 34.5822C47.9045 34.9459 48.1668 35.2254 48.5037 35.4207C48.8407 35.6122 49.2351 35.7079 49.6869 35.7079C49.9894 35.7079 50.2632 35.6658 50.5082 35.5815C50.7533 35.4935 50.9658 35.3652 51.1458 35.1967C51.3257 35.0282 51.4617 34.8196 51.5536 34.5707L53.4949 34.7889C53.3724 35.302 53.1388 35.75 52.7942 36.1329C52.4534 36.512 52.0169 36.8068 51.4847 37.0174C50.9524 37.2242 50.3436 37.3276 49.6582 37.3276ZM60.9544 37.1553H58.6799L62.821 25.3924H65.4516L69.5984 37.1553H67.324L64.1823 27.8047H64.0904L60.9544 37.1553ZM61.029 32.5432H67.2321V34.2548H61.029V32.5432ZM76.6788 33.4449V28.3331H78.758V37.1553H76.742V35.5873H76.6501C76.451 36.0812 76.1236 36.4852 75.668 36.7992C75.2161 37.1132 74.659 37.2701 73.9966 37.2701C73.4184 37.2701 72.9072 37.1419 72.4631 36.8853C72.0227 36.625 71.6781 36.2478 71.4292 35.7538C71.1803 35.2561 71.0559 34.6549 71.0559 33.9504V28.3331H73.1351V33.6287C73.1351 34.1878 73.2882 34.6319 73.5945 34.9612C73.9009 35.2905 74.3029 35.4552 74.8007 35.4552C75.107 35.4552 75.4038 35.3805 75.6909 35.2312C75.9781 35.0818 76.2136 34.8598 76.3974 34.5649C76.585 34.2663 76.6788 33.8929 76.6788 33.4449ZM84.1699 37.3103C83.4768 37.3103 82.8565 37.1323 82.309 36.7762C81.7614 36.4201 81.3287 35.9032 81.0109 35.2254C80.6931 34.5477 80.5342 33.7244 80.5342 32.7557C80.5342 31.7755 80.695 30.9484 81.0167 30.2745C81.3421 29.5967 81.7806 29.0856 82.332 28.7409C82.8833 28.3925 83.4979 28.2183 84.1756 28.2183C84.6926 28.2183 85.1176 28.3063 85.4507 28.4825C85.7838 28.6548 86.048 28.8635 86.2433 29.1085C86.4386 29.3498 86.5899 29.5776 86.6971 29.792H86.7832V25.3924H88.8681V37.1553H86.8234V35.7653H86.6971C86.5899 35.9798 86.4348 36.2076 86.2318 36.4488C86.0289 36.6862 85.7609 36.8892 85.4277 37.0576C85.0946 37.2261 84.6753 37.3103 84.1699 37.3103ZM84.75 35.6045C85.1903 35.6045 85.5656 35.4858 85.8757 35.2484C86.1859 35.0072 86.4214 34.6721 86.5822 34.2433C86.743 33.8144 86.8234 33.3147 86.8234 32.7442C86.8234 32.1737 86.743 31.6778 86.5822 31.2566C86.4252 30.8354 86.1916 30.508 85.8815 30.2745C85.5752 30.0409 85.198 29.9241 84.75 29.9241C84.2867 29.9241 83.8999 30.0447 83.5898 30.286C83.2796 30.5272 83.0461 30.8603 82.8891 31.2853C82.7321 31.7104 82.6536 32.1967 82.6536 32.7442C82.6536 33.2956 82.7321 33.7876 82.8891 34.2203C83.0499 34.6492 83.2854 34.988 83.5955 35.2369C83.9095 35.482 84.2943 35.6045 84.75 35.6045ZM91.0837 37.1553V28.3331H93.1629V37.1553H91.0837ZM92.1291 27.081C91.7998 27.081 91.5164 26.9719 91.279 26.7537C91.0416 26.5316 90.9229 26.2655 90.9229 25.9553C90.9229 25.6413 91.0416 25.3752 91.279 25.1569C91.5164 24.9349 91.7998 24.8238 92.1291 24.8238C92.4622 24.8238 92.7455 24.9349 92.9791 25.1569C93.2165 25.3752 93.3352 25.6413 93.3352 25.9553C93.3352 26.2655 93.2165 26.5316 92.9791 26.7537C92.7455 26.9719 92.4622 27.081 92.1291 27.081ZM99.7063 28.3331V29.9413H94.6347V28.3331H99.7063ZM95.8868 26.2195H97.966V34.5017C97.966 34.7813 98.0081 34.9957 98.0923 35.145C98.1804 35.2905 98.2953 35.3901 98.4369 35.4437C98.5786 35.4973 98.7356 35.5241 98.9079 35.5241C99.0381 35.5241 99.1568 35.5145 99.264 35.4954C99.375 35.4762 99.4593 35.459 99.5167 35.4437L99.8671 37.0691C99.756 37.1074 99.5971 37.1495 99.3904 37.1955C99.1874 37.2414 98.9385 37.2682 98.6437 37.2759C98.1229 37.2912 97.6539 37.2127 97.2365 37.0404C96.8192 36.8643 96.4879 36.5924 96.2429 36.2248C96.0017 35.8572 95.883 35.3977 95.8868 34.8464V26.2195ZM102.726 37.2816C102.378 37.2816 102.079 37.1591 101.83 36.914C101.581 36.669 101.459 36.3703 101.462 36.018C101.459 35.6734 101.581 35.3786 101.83 35.1335C102.079 34.8885 102.378 34.7659 102.726 34.7659C103.063 34.7659 103.356 34.8885 103.605 35.1335C103.857 35.3786 103.986 35.6734 103.99 36.018C103.986 36.2516 103.924 36.4641 103.806 36.6556C103.691 36.847 103.538 37.0002 103.346 37.1151C103.159 37.2261 102.952 37.2816 102.726 37.2816ZM102.726 30.9867C102.378 30.9867 102.079 30.8641 101.83 30.6191C101.581 30.3702 101.459 30.0715 101.462 29.7231C101.459 29.3785 101.581 29.0836 101.83 28.8386C102.079 28.5897 102.378 28.4652 102.726 28.4652C103.063 28.4652 103.356 28.5897 103.605 28.8386C103.857 29.0836 103.986 29.3785 103.99 29.7231C103.986 29.9528 103.924 30.1634 103.806 30.3549C103.691 30.5463 103.538 30.6995 103.346 30.8144C103.159 30.9292 102.952 30.9867 102.726 30.9867ZM120.751 31.2739C120.751 32.5413 120.513 33.6268 120.039 34.5305C119.568 35.4303 118.924 36.1195 118.109 36.5981C117.297 37.0768 116.376 37.3161 115.346 37.3161C114.316 37.3161 113.393 37.0768 112.578 36.5981C111.766 36.1157 111.123 35.4245 110.648 34.5247C110.177 33.6211 109.941 32.5374 109.941 31.2739C109.941 30.0064 110.177 28.9228 110.648 28.023C111.123 27.1193 111.766 26.4282 112.578 25.9496C113.393 25.4709 114.316 25.2316 115.346 25.2316C116.376 25.2316 117.297 25.4709 118.109 25.9496C118.924 26.4282 119.568 27.1193 120.039 28.023C120.513 28.9228 120.751 30.0064 120.751 31.2739ZM118.608 31.2739C118.608 30.3817 118.469 29.6293 118.189 29.0166C117.913 28.4002 117.53 27.9349 117.04 27.6209C116.55 27.3031 115.985 27.1442 115.346 27.1442C114.707 27.1442 114.142 27.3031 113.652 27.6209C113.162 27.9349 112.777 28.4002 112.497 29.0166C112.222 29.6293 112.084 30.3817 112.084 31.2739C112.084 32.166 112.222 32.9203 112.497 33.5368C112.777 34.1495 113.162 34.6147 113.652 34.9325C114.142 35.2465 114.707 35.4035 115.346 35.4035C115.985 35.4035 116.55 35.2465 117.04 34.9325C117.53 34.6147 117.913 34.1495 118.189 33.5368C118.469 32.9203 118.608 32.166 118.608 31.2739ZM130.554 28.3331L127.412 37.1553H125.114L121.973 28.3331H124.19L126.217 34.8866H126.309L128.342 28.3331H130.554ZM135.598 37.3276C134.713 37.3276 133.949 37.1438 133.306 36.7762C132.667 36.4048 132.175 35.8802 131.83 35.2025C131.485 34.5209 131.313 33.7187 131.313 32.7959C131.313 31.8884 131.485 31.092 131.83 30.4066C132.179 29.7173 132.665 29.1813 133.289 28.7984C133.913 28.4116 134.646 28.2183 135.489 28.2183C136.032 28.2183 136.546 28.3063 137.028 28.4825C137.514 28.6548 137.943 28.9228 138.315 29.2866C138.69 29.6503 138.985 30.1137 139.199 30.6765C139.414 31.2356 139.521 31.9018 139.521 32.6753V33.3128H132.29V31.9114H137.528C137.524 31.5132 137.438 31.159 137.269 30.8488C137.101 30.5348 136.865 30.2879 136.563 30.1079C136.264 29.9279 135.916 29.838 135.517 29.838C135.092 29.838 134.719 29.9413 134.397 30.1481C134.076 30.3511 133.825 30.6191 133.645 30.9522C133.469 31.2815 133.379 31.6434 133.375 32.0377V33.2611C133.375 33.7742 133.469 34.2146 133.657 34.5822C133.844 34.9459 134.106 35.2254 134.443 35.4207C134.78 35.6122 135.175 35.7079 135.627 35.7079C135.929 35.7079 136.203 35.6658 136.448 35.5815C136.693 35.4935 136.905 35.3652 137.085 35.1967C137.265 35.0282 137.401 34.8196 137.493 34.5707L139.435 34.7889C139.312 35.302 139.078 35.75 138.734 36.1329C138.393 36.512 137.957 36.8068 137.424 37.0174C136.892 37.2242 136.283 37.3276 135.598 37.3276ZM141.28 37.1553V28.3331H143.296V29.8035H143.388C143.548 29.2942 143.824 28.9018 144.215 28.6261C144.609 28.3465 145.059 28.2068 145.564 28.2068C145.679 28.2068 145.808 28.2125 145.949 28.224C146.095 28.2317 146.215 28.2451 146.311 28.2642V30.1768C146.223 30.1462 146.083 30.1194 145.892 30.0964C145.704 30.0696 145.522 30.0562 145.346 30.0562C144.967 30.0562 144.626 30.1385 144.324 30.3032C144.025 30.464 143.79 30.688 143.617 30.9752C143.445 31.2624 143.359 31.5936 143.359 31.9688V37.1553H141.28ZM155.841 28.3331L152.699 37.1553H150.402L147.26 28.3331H149.477L151.505 34.8866H151.597L153.63 28.3331H155.841ZM157.28 37.1553V28.3331H159.359V37.1553H157.28ZM158.325 27.081C157.996 27.081 157.713 26.9719 157.475 26.7537C157.238 26.5316 157.119 26.2655 157.119 25.9553C157.119 25.6413 157.238 25.3752 157.475 25.1569C157.713 24.9349 157.996 24.8238 158.325 24.8238C158.658 24.8238 158.942 24.9349 159.175 25.1569C159.413 25.3752 159.531 25.6413 159.531 25.9553C159.531 26.2655 159.413 26.5316 159.175 26.7537C158.942 26.9719 158.658 27.081 158.325 27.081ZM165.403 37.3276C164.518 37.3276 163.754 37.1438 163.111 36.7762C162.472 36.4048 161.98 35.8802 161.635 35.2025C161.29 34.5209 161.118 33.7187 161.118 32.7959C161.118 31.8884 161.29 31.092 161.635 30.4066C161.983 29.7173 162.47 29.1813 163.094 28.7984C163.718 28.4116 164.451 28.2183 165.294 28.2183C165.837 28.2183 166.35 28.3063 166.833 28.4825C167.319 28.6548 167.748 28.9228 168.119 29.2866C168.495 29.6503 168.79 30.1137 169.004 30.6765C169.218 31.2356 169.326 31.9018 169.326 32.6753V33.3128H162.094V31.9114H167.333C167.329 31.5132 167.243 31.159 167.074 30.8488C166.906 30.5348 166.67 30.2879 166.368 30.1079C166.069 29.9279 165.721 29.838 165.322 29.838C164.897 29.838 164.524 29.9413 164.202 30.1481C163.881 30.3511 163.63 30.6191 163.45 30.9522C163.274 31.2815 163.184 31.6434 163.18 32.0377V33.2611C163.18 33.7742 163.274 34.2146 163.461 34.5822C163.649 34.9459 163.911 35.2254 164.248 35.4207C164.585 35.6122 164.98 35.7079 165.431 35.7079C165.734 35.7079 166.008 35.6658 166.253 35.5815C166.498 35.4935 166.71 35.3652 166.89 35.1967C167.07 35.0282 167.206 34.8196 167.298 34.5707L169.239 34.7889C169.117 35.302 168.883 35.75 168.539 36.1329C168.198 36.512 167.761 36.8068 167.229 37.0174C166.697 37.2242 166.088 37.3276 165.403 37.3276ZM172.858 37.1553L170.365 28.3331H172.485L174.035 34.5362H174.116L175.701 28.3331H177.797L179.383 34.5017H179.469L180.997 28.3331H183.122L180.623 37.1553H178.458L176.804 31.1934H176.683L175.029 37.1553H172.858Z" fill="#171A22"/>
<path d="M82.4881 125.958C82.4881 142.133 69.3759 155.245 53.2012 155.245C37.0265 155.245 23.9143 142.133 23.9143 125.958C23.9143 109.783 37.0265 96.6711 53.2012 96.6711C69.3759 96.6711 82.4881 109.783 82.4881 125.958ZM36.1862 125.958C36.1862 135.355 43.8041 142.973 53.2012 142.973C62.5984 142.973 70.2162 135.355 70.2162 125.958C70.2162 116.561 62.5984 108.943 53.2012 108.943C43.8041 108.943 36.1862 116.561 36.1862 125.958Z" fill="#00A8FF"/>
<path d="M53.2012 96.6711C49.3552 96.6711 45.5469 97.4287 41.9936 98.9005C38.4404 100.372 35.2118 102.53 32.4922 105.249C29.7727 107.969 27.6154 111.197 26.1436 114.75C24.6718 118.304 23.9143 122.112 23.9143 125.958L36.1862 125.958C36.1862 123.724 36.6263 121.511 37.4814 119.447C38.3365 117.382 39.5898 115.507 41.1698 113.927C42.7498 112.347 44.6255 111.093 46.6899 110.238C48.7542 109.383 50.9668 108.943 53.2012 108.943V96.6711Z" fill="#E9EBEF"/>
<path d="M29.5789 77.21C29.5387 76.8338 29.3693 76.5409 29.0706 76.3313C28.7748 76.1216 28.39 76.0168 27.9161 76.0168C27.583 76.0168 27.2973 76.0671 27.0589 76.1676C26.8206 76.2681 26.6382 76.4045 26.5118 76.5768C26.3855 76.7491 26.3209 76.9458 26.318 77.167C26.318 77.3507 26.3596 77.5101 26.4429 77.6451C26.5291 77.7801 26.6454 77.8949 26.7918 77.9897C26.9383 78.0816 27.1006 78.1592 27.2786 78.2223C27.4567 78.2855 27.6361 78.3386 27.8171 78.3817L28.6441 78.5885C28.9773 78.666 29.2975 78.7708 29.6048 78.9029C29.9149 79.035 30.192 79.2016 30.4361 79.4026C30.6831 79.6037 30.8784 79.8463 31.022 80.1306C31.1656 80.4149 31.2374 80.7481 31.2374 81.13C31.2374 81.6469 31.1053 82.1021 30.8411 82.4956C30.5769 82.8861 30.1949 83.192 29.6952 83.4131C29.1984 83.6313 28.5968 83.7405 27.8903 83.7405C27.2039 83.7405 26.608 83.6342 26.1026 83.4217C25.6 83.2092 25.2066 82.899 24.9223 82.4912C24.6409 82.0835 24.4887 81.5866 24.4657 81.0008H26.038C26.061 81.3081 26.1557 81.5637 26.3223 81.7676C26.4889 81.9715 26.7057 82.1237 26.9728 82.2242C27.2427 82.3247 27.5442 82.3749 27.8774 82.3749C28.2249 82.3749 28.5293 82.3232 28.7906 82.2199C29.0548 82.1136 29.2616 81.9671 29.4109 81.7805C29.5602 81.5909 29.6363 81.3698 29.6392 81.1171C29.6363 80.8874 29.5689 80.6978 29.4368 80.5485C29.3047 80.3963 29.1194 80.2699 28.8811 80.1694C28.6456 80.066 28.3699 79.9741 28.054 79.8937L27.0503 79.6353C26.3237 79.4486 25.7494 79.1657 25.3272 78.7866C24.9079 78.4047 24.6983 77.8978 24.6983 77.266C24.6983 76.7462 24.839 76.2911 25.1205 75.9005C25.4048 75.5099 25.791 75.207 26.2792 74.9916C26.7674 74.7733 27.3202 74.6642 27.9377 74.6642C28.5637 74.6642 29.1122 74.7733 29.5832 74.9916C30.0571 75.207 30.429 75.5071 30.6989 75.8919C30.9689 76.2738 31.1081 76.7132 31.1167 77.21H29.5789ZM32.5932 83.6069V76.9903H34.1526V83.6069H32.5932ZM33.3772 76.0513C33.1302 76.0513 32.9177 75.9694 32.7397 75.8057C32.5616 75.6392 32.4726 75.4396 32.4726 75.207C32.4726 74.9715 32.5616 74.7719 32.7397 74.6082C32.9177 74.4416 33.1302 74.3583 33.3772 74.3583C33.627 74.3583 33.8396 74.4416 34.0147 74.6082C34.1928 74.7719 34.2818 74.9715 34.2818 75.207C34.2818 75.4396 34.1928 75.6392 34.0147 75.8057C33.8396 75.9694 33.627 76.0513 33.3772 76.0513ZM39.0601 76.9903V78.1965H35.2564V76.9903H39.0601ZM36.1955 75.4051H37.7549V81.6168C37.7549 81.8264 37.7865 81.9872 37.8497 82.0992C37.9157 82.2084 38.0019 82.283 38.1081 82.3232C38.2144 82.3634 38.3321 82.3836 38.4613 82.3836C38.559 82.3836 38.648 82.3764 38.7284 82.362C38.8117 82.3477 38.8749 82.3347 38.918 82.3232L39.1807 83.5423C39.0974 83.571 38.9783 83.6026 38.8232 83.6371C38.671 83.6715 38.4843 83.6917 38.2632 83.6974C37.8726 83.7089 37.5208 83.65 37.2078 83.5208C36.8948 83.3887 36.6464 83.1848 36.4626 82.9091C36.2817 82.6334 36.1926 82.2888 36.1955 81.8752V75.4051ZM43.2224 83.7362C42.559 83.7362 41.9861 83.5983 41.5036 83.3226C41.0241 83.0441 40.655 82.6506 40.3966 82.1423C40.1381 81.6311 40.0089 81.0295 40.0089 80.3374C40.0089 79.6568 40.1381 79.0595 40.3966 78.5454C40.6579 78.0285 41.0226 77.6264 41.4907 77.3393C41.9588 77.0492 42.5088 76.9042 43.1406 76.9042C43.5484 76.9042 43.9332 76.9702 44.295 77.1023C44.6597 77.2316 44.9814 77.4326 45.2599 77.7054C45.5414 77.9782 45.7625 78.3257 45.9233 78.7479C46.0841 79.1672 46.1646 79.6668 46.1646 80.2469V80.7251H40.7412V79.674H44.6698C44.6669 79.3754 44.6023 79.1097 44.4759 78.8771C44.3496 78.6416 44.173 78.4564 43.9461 78.3214C43.7221 78.1864 43.4608 78.1189 43.1621 78.1189C42.8433 78.1189 42.5633 78.1965 42.3221 78.3516C42.0809 78.5038 41.8928 78.7048 41.7578 78.9546C41.6257 79.2016 41.5582 79.473 41.5553 79.7688V80.6863C41.5553 81.0711 41.6257 81.4014 41.7664 81.6771C41.9071 81.9499 42.1038 82.1596 42.3566 82.306C42.6093 82.4496 42.9051 82.5214 43.2439 82.5214C43.4708 82.5214 43.6762 82.4898 43.8599 82.4266C44.0437 82.3606 44.2031 82.2644 44.3381 82.138C44.4731 82.0117 44.575 81.8551 44.6439 81.6685L46.0999 81.8322C46.008 82.217 45.8329 82.553 45.5744 82.8402C45.3188 83.1245 44.9914 83.3456 44.5923 83.5035C44.1931 83.6586 43.7365 83.7362 43.2224 83.7362ZM50.5616 83.6069V74.7848H52.1598V78.5196H56.2478V74.7848H57.8502V83.6069H56.2478V79.8593H52.1598V83.6069H50.5616ZM62.4487 83.7362C61.7853 83.7362 61.2124 83.5983 60.7299 83.3226C60.2503 83.0441 59.8813 82.6506 59.6228 82.1423C59.3644 81.6311 59.2351 81.0295 59.2351 80.3374C59.2351 79.6568 59.3644 79.0595 59.6228 78.5454C59.8842 78.0285 60.2489 77.6264 60.717 77.3393C61.1851 77.0492 61.735 76.9042 62.3668 76.9042C62.7746 76.9042 63.1594 76.9702 63.5213 77.1023C63.886 77.2316 64.2076 77.4326 64.4862 77.7054C64.7676 77.9782 64.9888 78.3257 65.1496 78.7479C65.3104 79.1672 65.3908 79.6668 65.3908 80.2469V80.7251H59.9674V79.674H63.896C63.8932 79.3754 63.8286 79.1097 63.7022 78.8771C63.5758 78.6416 63.3992 78.4564 63.1724 78.3214C62.9484 78.1864 62.687 78.1189 62.3884 78.1189C62.0696 78.1189 61.7896 78.1965 61.5484 78.3516C61.3071 78.5038 61.119 78.7048 60.9841 78.9546C60.852 79.2016 60.7845 79.473 60.7816 79.7688V80.6863C60.7816 81.0711 60.852 81.4014 60.9927 81.6771C61.1334 81.9499 61.3301 82.1596 61.5828 82.306C61.8355 82.4496 62.1313 82.5214 62.4702 82.5214C62.6971 82.5214 62.9024 82.4898 63.0862 82.4266C63.27 82.3606 63.4294 82.2644 63.5644 82.138C63.6993 82.0117 63.8013 81.8551 63.8702 81.6685L65.3262 81.8322C65.2343 82.217 65.0591 82.553 64.8007 82.8402C64.5451 83.1245 64.2177 83.3456 63.8185 83.5035C63.4193 83.6586 62.9627 83.7362 62.4487 83.7362ZM68.614 83.7405C68.1948 83.7405 67.8171 83.6658 67.4811 83.5165C67.148 83.3643 66.8838 83.1403 66.6885 82.8445C66.4961 82.5487 66.3999 82.184 66.3999 81.7503C66.3999 81.377 66.4688 81.0683 66.6067 80.8242C66.7445 80.5801 66.9326 80.3848 67.171 80.2383C67.4093 80.0919 67.6778 79.9813 67.9765 79.9066C68.278 79.8291 68.5896 79.7731 68.9113 79.7386C69.299 79.6984 69.6134 79.6625 69.8546 79.6309C70.0959 79.5965 70.2711 79.5448 70.3802 79.4759C70.4922 79.4041 70.5482 79.2935 70.5482 79.1442V79.1183C70.5482 78.7938 70.452 78.5425 70.2596 78.3645C70.0672 78.1864 69.79 78.0974 69.4282 78.0974C69.0462 78.0974 68.7433 78.1807 68.5193 78.3473C68.2981 78.5138 68.1488 78.7105 68.0713 78.9374L66.6153 78.7306C66.7301 78.3286 66.9197 77.9926 67.1839 77.7226C67.4481 77.4498 67.7712 77.2459 68.1531 77.111C68.5351 76.9731 68.9572 76.9042 69.4196 76.9042C69.7383 76.9042 70.0557 76.9415 70.3716 77.0162C70.6875 77.0908 70.9761 77.2143 71.2374 77.3866C71.4987 77.5561 71.7084 77.7873 71.8663 78.0802C72.0272 78.3731 72.1076 78.7393 72.1076 79.1786V83.6069H70.6085V82.698H70.5568C70.462 82.8818 70.3285 83.0541 70.1562 83.2149C69.9867 83.3729 69.7728 83.5007 69.5143 83.5983C69.2587 83.6931 68.9586 83.7405 68.614 83.7405ZM69.019 82.5946C69.332 82.5946 69.6034 82.5329 69.8331 82.4094C70.0629 82.283 70.2395 82.1165 70.363 81.9097C70.4893 81.7029 70.5525 81.4775 70.5525 81.2334V80.4537C70.5037 80.4939 70.4204 80.5312 70.3026 80.5657C70.1878 80.6002 70.0585 80.6303 69.915 80.6562C69.7714 80.682 69.6292 80.705 69.4885 80.7251C69.3478 80.7452 69.2257 80.7624 69.1223 80.7768C68.8897 80.8084 68.6815 80.8601 68.4977 80.9319C68.3139 81.0037 68.1689 81.1042 68.0627 81.2334C67.9564 81.3598 67.9033 81.5235 67.9033 81.7245C67.9033 82.0117 68.0081 82.2285 68.2177 82.3749C68.4274 82.5214 68.6944 82.5946 69.019 82.5946ZM75.2349 74.7848V83.6069H73.6756V74.7848H75.2349ZM80.1425 76.9903V78.1965H76.3388V76.9903H80.1425ZM77.2779 75.4051H78.8372V81.6168C78.8372 81.8264 78.8688 81.9872 78.932 82.0992C78.9981 82.2084 79.0842 82.283 79.1905 82.3232C79.2967 82.3634 79.4145 82.3836 79.5437 82.3836C79.6413 82.3836 79.7304 82.3764 79.8108 82.362C79.8941 82.3477 79.9572 82.3347 80.0003 82.3232L80.2631 83.5423C80.1798 83.571 80.0606 83.6026 79.9055 83.6371C79.7533 83.6715 79.5667 83.6917 79.3455 83.6974C78.955 83.7089 78.6032 83.65 78.2902 83.5208C77.9771 83.3887 77.7287 83.1848 77.5449 82.9091C77.364 82.6334 77.275 82.2888 77.2779 81.8752V75.4051ZM83.1481 79.73V83.6069H81.5888V74.7848H83.1137V78.1146H83.1912C83.3463 77.7413 83.5861 77.4469 83.9106 77.2316C84.238 77.0133 84.6544 76.9042 85.1598 76.9042C85.6193 76.9042 86.0199 77.0004 86.3617 77.1928C86.7034 77.3852 86.9676 77.6666 87.1543 78.0371C87.3438 78.4076 87.4386 78.8599 87.4386 79.394V83.6069H85.8792V79.6353C85.8792 79.1901 85.7643 78.8441 85.5346 78.5971C85.3077 78.3473 84.989 78.2223 84.5783 78.2223C84.3026 78.2223 84.0556 78.2826 83.8374 78.4033C83.622 78.521 83.4526 78.6919 83.3291 78.9159C83.2085 79.1399 83.1481 79.4113 83.1481 79.73Z" fill="#171A22"/>
<path d="M172.394 78.3517H170.783C170.737 78.0875 170.652 77.8535 170.528 77.6496C170.405 77.4428 170.251 77.2676 170.068 77.1241C169.884 76.9805 169.674 76.8728 169.439 76.801C169.206 76.7263 168.955 76.689 168.685 76.689C168.205 76.689 167.78 76.8096 167.41 77.0508C167.039 77.2892 166.749 77.6395 166.54 78.1019C166.33 78.5614 166.225 79.1228 166.225 79.7862C166.225 80.4611 166.33 81.0297 166.54 81.492C166.752 81.9515 167.042 82.299 167.41 82.5345C167.78 82.7671 168.204 82.8834 168.68 82.8834C168.945 82.8834 169.192 82.849 169.421 82.78C169.654 82.7082 169.862 82.6034 170.046 82.4656C170.233 82.3277 170.389 82.1583 170.516 81.9573C170.645 81.7562 170.734 81.5265 170.783 81.268L172.394 81.2767C172.333 81.6959 172.203 82.0894 172.002 82.457C171.804 82.8246 171.544 83.1491 171.222 83.4305C170.9 83.7091 170.524 83.9273 170.093 84.0853C169.663 84.2403 169.184 84.3179 168.659 84.3179C167.884 84.3179 167.191 84.1384 166.583 83.7794C165.974 83.4204 165.494 82.9021 165.144 82.2243C164.793 81.5466 164.618 80.7339 164.618 79.7862C164.618 78.8356 164.795 78.0229 165.148 77.3481C165.501 76.6703 165.982 76.152 166.591 75.793C167.2 75.434 167.889 75.2545 168.659 75.2545C169.15 75.2545 169.607 75.3234 170.029 75.4613C170.451 75.5991 170.827 75.8016 171.157 76.0687C171.488 76.3329 171.759 76.6574 171.972 77.0422C172.187 77.4242 172.328 77.8607 172.394 78.3517ZM173.788 84.1973V77.5807H175.3V78.6834H175.369C175.49 78.3015 175.697 78.0071 175.99 77.8004C176.285 77.5907 176.623 77.4859 177.002 77.4859C177.088 77.4859 177.184 77.4902 177.29 77.4988C177.4 77.5046 177.49 77.5146 177.562 77.529V78.9634C177.496 78.9405 177.391 78.9204 177.247 78.9031C177.107 78.883 176.97 78.873 176.838 78.873C176.554 78.873 176.298 78.9347 176.071 79.0582C175.847 79.1788 175.671 79.3468 175.542 79.5622C175.412 79.7776 175.348 80.026 175.348 80.3074V84.1973H173.788ZM180.383 84.3308C179.964 84.3308 179.586 84.2561 179.25 84.1068C178.917 83.9546 178.653 83.7306 178.458 83.4348C178.265 83.139 178.169 82.7743 178.169 82.3407C178.169 81.9673 178.238 81.6586 178.376 81.4145C178.514 81.1704 178.702 80.9751 178.94 80.8287C179.179 80.6822 179.447 80.5716 179.746 80.497C180.047 80.4194 180.359 80.3634 180.681 80.329C181.068 80.2888 181.383 80.2529 181.624 80.2213C181.865 80.1868 182.04 80.1351 182.15 80.0662C182.262 79.9944 182.318 79.8838 182.318 79.7345V79.7087C182.318 79.3842 182.221 79.1329 182.029 78.9548C181.836 78.7768 181.559 78.6877 181.198 78.6877C180.816 78.6877 180.513 78.771 180.289 78.9376C180.067 79.1042 179.918 79.3009 179.841 79.5277L178.385 79.321C178.499 78.9189 178.689 78.5829 178.953 78.313C179.217 78.0402 179.54 77.8363 179.922 77.7013C180.304 77.5634 180.727 77.4945 181.189 77.4945C181.508 77.4945 181.825 77.5318 182.141 77.6065C182.457 77.6812 182.745 77.8047 183.007 77.977C183.268 78.1464 183.478 78.3776 183.636 78.6705C183.796 78.9634 183.877 79.3296 183.877 79.769V84.1973H182.378V83.2883H182.326C182.231 83.4721 182.098 83.6444 181.926 83.8053C181.756 83.9632 181.542 84.091 181.284 84.1887C181.028 84.2834 180.728 84.3308 180.383 84.3308ZM180.788 83.185C181.101 83.185 181.373 83.1232 181.602 82.9997C181.832 82.8734 182.009 82.7068 182.132 82.5C182.259 82.2933 182.322 82.0678 182.322 81.8237V81.044C182.273 81.0842 182.19 81.1216 182.072 81.156C181.957 81.1905 181.828 81.2207 181.684 81.2465C181.541 81.2724 181.399 81.2953 181.258 81.3154C181.117 81.3355 180.995 81.3528 180.892 81.3671C180.659 81.3987 180.451 81.4504 180.267 81.5222C180.083 81.594 179.938 81.6945 179.832 81.8237C179.726 81.9501 179.673 82.1138 179.673 82.3148C179.673 82.602 179.777 82.8188 179.987 82.9653C180.197 83.1117 180.464 83.185 180.788 83.185ZM186.81 84.1973L184.941 77.5807H186.53L187.693 82.233H187.754L188.943 77.5807H190.515L191.704 82.2071H191.769L192.914 77.5807H194.508L192.634 84.1973H191.01L189.77 79.7259H189.679L188.439 84.1973H186.81ZM197.156 75.3751V84.1973H195.597V75.3751H197.156ZM201.689 84.3265C201.026 84.3265 200.453 84.1887 199.97 83.913C199.491 83.6344 199.122 83.241 198.863 82.7327C198.605 82.2215 198.476 81.6198 198.476 80.9277C198.476 80.2471 198.605 79.6498 198.863 79.1357C199.125 78.6188 199.489 78.2168 199.957 77.9296C200.426 77.6395 200.976 77.4945 201.607 77.4945C202.015 77.4945 202.4 77.5606 202.762 77.6927C203.126 77.8219 203.448 78.0229 203.727 78.2957C204.008 78.5686 204.229 78.916 204.39 79.3382C204.551 79.7575 204.631 80.2572 204.631 80.8373V81.3154H199.208V80.2644H203.137C203.134 79.9657 203.069 79.7 202.943 79.4674C202.816 79.2319 202.64 79.0467 202.413 78.9117C202.189 78.7768 201.928 78.7093 201.629 78.7093C201.31 78.7093 201.03 78.7868 200.789 78.9419C200.548 79.0941 200.36 79.2951 200.225 79.545C200.092 79.7919 200.025 80.0633 200.022 80.3591V81.2767C200.022 81.6615 200.092 81.9917 200.233 82.2674C200.374 82.5402 200.571 82.7499 200.823 82.8963C201.076 83.0399 201.372 83.1117 201.711 83.1117C201.938 83.1117 202.143 83.0801 202.327 83.017C202.51 82.9509 202.67 82.8547 202.805 82.7283C202.94 82.602 203.042 82.4455 203.111 82.2588L204.567 82.4225C204.475 82.8073 204.3 83.1433 204.041 83.4305C203.786 83.7148 203.458 83.9359 203.059 84.0939C202.66 84.249 202.203 84.3265 201.689 84.3265ZM208.406 84.3136C207.886 84.3136 207.421 84.18 207.01 83.913C206.6 83.6459 206.275 83.2582 206.037 82.7499C205.798 82.2416 205.679 81.6241 205.679 80.8976C205.679 80.1624 205.8 79.5421 206.041 79.0367C206.285 78.5284 206.614 78.145 207.027 77.8865C207.441 77.6252 207.902 77.4945 208.41 77.4945C208.798 77.4945 209.117 77.5606 209.367 77.6927C209.616 77.8219 209.815 77.9784 209.961 78.1622C210.107 78.3431 210.221 78.514 210.301 78.6748H210.366V75.3751H211.93V84.1973H210.396V83.1548H210.301C210.221 83.3156 210.105 83.4865 209.952 83.6674C209.8 83.8455 209.599 83.9977 209.349 84.124C209.099 84.2504 208.785 84.3136 208.406 84.3136ZM208.841 83.0342C209.171 83.0342 209.453 82.9452 209.685 82.7671C209.918 82.5862 210.095 82.3349 210.215 82.0133C210.336 81.6916 210.396 81.3169 210.396 80.889C210.396 80.4611 210.336 80.0892 210.215 79.7733C210.097 79.4574 209.922 79.2118 209.69 79.0367C209.46 78.8615 209.177 78.7739 208.841 78.7739C208.493 78.7739 208.203 78.8644 207.971 79.0453C207.738 79.2262 207.563 79.476 207.445 79.7948C207.328 80.1136 207.269 80.4783 207.269 80.889C207.269 81.3025 207.328 81.6715 207.445 81.996C207.566 82.3177 207.743 82.5718 207.975 82.7585C208.211 82.9423 208.499 83.0342 208.841 83.0342ZM216.669 84.1973V75.3751H219.977C220.655 75.3751 221.224 75.5015 221.683 75.7542C222.146 76.0069 222.495 76.3544 222.73 76.7967C222.968 77.2361 223.088 77.7357 223.088 78.2957C223.088 78.8615 222.968 79.364 222.73 79.8034C222.492 80.2428 222.14 80.5889 221.675 80.8416C221.209 81.0914 220.636 81.2164 219.956 81.2164H217.763V79.9025H219.74C220.137 79.9025 220.461 79.8336 220.714 79.6957C220.967 79.5579 221.153 79.3684 221.274 79.1271C221.398 78.8859 221.459 78.6088 221.459 78.2957C221.459 77.9827 221.398 77.707 221.274 77.4687C221.153 77.2303 220.965 77.0451 220.71 76.913C220.457 76.778 220.131 76.7105 219.732 76.7105H218.267V84.1973H216.669ZM226.192 84.3308C225.773 84.3308 225.395 84.2561 225.059 84.1068C224.726 83.9546 224.462 83.7306 224.267 83.4348C224.074 83.139 223.978 82.7743 223.978 82.3407C223.978 81.9673 224.047 81.6586 224.185 81.4145C224.323 81.1704 224.511 80.9751 224.749 80.8287C224.988 80.6822 225.256 80.5716 225.555 80.497C225.856 80.4194 226.168 80.3634 226.49 80.329C226.877 80.2888 227.192 80.2529 227.433 80.2213C227.674 80.1868 227.849 80.1351 227.958 80.0662C228.07 79.9944 228.126 79.8838 228.126 79.7345V79.7087C228.126 79.3842 228.03 79.1329 227.838 78.9548C227.645 78.7768 227.368 78.6877 227.006 78.6877C226.625 78.6877 226.322 78.771 226.098 78.9376C225.876 79.1042 225.727 79.3009 225.65 79.5277L224.194 79.321C224.308 78.9189 224.498 78.5829 224.762 78.313C225.026 78.0402 225.349 77.8363 225.731 77.7013C226.113 77.5634 226.535 77.4945 226.998 77.4945C227.317 77.4945 227.634 77.5318 227.95 77.6065C228.266 77.6812 228.554 77.8047 228.816 77.977C229.077 78.1464 229.287 78.3776 229.445 78.6705C229.605 78.9634 229.686 79.3296 229.686 79.769V84.1973H228.187V83.2883H228.135C228.04 83.4721 227.907 83.6444 227.734 83.8053C227.565 83.9632 227.351 84.091 227.093 84.1887C226.837 84.2834 226.537 84.3308 226.192 84.3308ZM226.597 83.185C226.91 83.185 227.182 83.1232 227.411 82.9997C227.641 82.8734 227.818 82.7068 227.941 82.5C228.068 82.2933 228.131 82.0678 228.131 81.8237V81.044C228.082 81.0842 227.999 81.1216 227.881 81.156C227.766 81.1905 227.637 81.2207 227.493 81.2465C227.35 81.2724 227.207 81.2953 227.067 81.3154C226.926 81.3355 226.804 81.3528 226.701 81.3671C226.468 81.3987 226.26 81.4504 226.076 81.5222C225.892 81.594 225.747 81.6945 225.641 81.8237C225.535 81.9501 225.482 82.1138 225.482 82.3148C225.482 82.602 225.586 82.8188 225.796 82.9653C226.006 83.1117 226.273 83.185 226.597 83.185ZM234.131 86.8163C233.571 86.8163 233.09 86.7402 232.688 86.588C232.286 86.4387 231.963 86.2377 231.719 85.985C231.475 85.7322 231.306 85.4522 231.211 85.145L232.615 84.8046C232.678 84.9339 232.77 85.0617 232.891 85.188C233.011 85.3173 233.174 85.4235 233.378 85.5068C233.584 85.593 233.844 85.636 234.157 85.636C234.599 85.636 234.966 85.5283 235.256 85.313C235.546 85.1004 235.691 84.7501 235.691 84.2619V83.0083H235.613C235.533 83.1692 235.415 83.3343 235.26 83.5037C235.108 83.6732 234.905 83.8153 234.653 83.9302C234.403 84.0451 234.088 84.1025 233.709 84.1025C233.201 84.1025 232.74 83.9833 232.326 83.745C231.916 83.5037 231.588 83.1448 231.344 82.668C231.103 82.1885 230.982 81.5882 230.982 80.8674C230.982 80.1409 231.103 79.5277 231.344 79.028C231.588 78.5255 231.917 78.145 232.331 77.8865C232.744 77.6252 233.205 77.4945 233.714 77.4945C234.101 77.4945 234.42 77.5606 234.67 77.6927C234.923 77.8219 235.124 77.9784 235.273 78.1622C235.422 78.3431 235.536 78.514 235.613 78.6748H235.699V77.5807H237.237V84.305C237.237 84.8707 237.102 85.3388 236.832 85.7093C236.562 86.0797 236.193 86.3568 235.725 86.5406C235.257 86.7244 234.726 86.8163 234.131 86.8163ZM234.144 82.8791C234.475 82.8791 234.756 82.7987 234.989 82.6379C235.221 82.4771 235.398 82.2459 235.518 81.9443C235.639 81.6428 235.699 81.281 235.699 80.8588C235.699 80.4424 235.639 80.0777 235.518 79.7647C235.401 79.4516 235.226 79.209 234.993 79.0367C234.763 78.8615 234.48 78.7739 234.144 78.7739C233.797 78.7739 233.507 78.8644 233.274 79.0453C233.042 79.2262 232.866 79.4746 232.749 79.7905C232.631 80.1035 232.572 80.4596 232.572 80.8588C232.572 81.2637 232.631 81.6184 232.749 81.9228C232.869 82.2243 233.046 82.4598 233.278 82.6293C233.514 82.7958 233.803 82.8791 234.144 82.8791ZM241.765 84.3265C241.101 84.3265 240.528 84.1887 240.046 83.913C239.566 83.6344 239.197 83.241 238.939 82.7327C238.68 82.2215 238.551 81.6198 238.551 80.9277C238.551 80.2471 238.68 79.6498 238.939 79.1357C239.2 78.6188 239.565 78.2168 240.033 77.9296C240.501 77.6395 241.051 77.4945 241.683 77.4945C242.091 77.4945 242.475 77.5606 242.837 77.6927C243.202 77.8219 243.524 78.0229 243.802 78.2957C244.084 78.5686 244.305 78.916 244.465 79.3382C244.626 79.7575 244.707 80.2572 244.707 80.8373V81.3154H239.283V80.2644H243.212C243.209 79.9657 243.144 79.7 243.018 79.4674C242.892 79.2319 242.715 79.0467 242.488 78.9117C242.264 78.7768 242.003 78.7093 241.704 78.7093C241.386 78.7093 241.106 78.7868 240.864 78.9419C240.623 79.0941 240.435 79.2951 240.3 79.545C240.168 79.7919 240.1 80.0633 240.098 80.3591V81.2767C240.098 81.6615 240.168 81.9917 240.309 82.2674C240.449 82.5402 240.646 82.7499 240.899 82.8963C241.151 83.0399 241.447 83.1117 241.786 83.1117C242.013 83.1117 242.218 83.0801 242.402 83.017C242.586 82.9509 242.745 82.8547 242.88 82.7283C243.015 82.602 243.117 82.4455 243.186 82.2588L244.642 82.4225C244.55 82.8073 244.375 83.1433 244.117 83.4305C243.861 83.7148 243.534 83.9359 243.134 84.0939C242.735 84.249 242.279 84.3265 241.765 84.3265ZM251.255 79.3296L249.834 79.4847C249.794 79.3411 249.723 79.2061 249.623 79.0797C249.525 78.9534 249.393 78.8514 249.227 78.7739C249.06 78.6964 248.856 78.6576 248.615 78.6576C248.29 78.6576 248.018 78.7279 247.796 78.8687C247.578 79.0094 247.47 79.1917 247.473 79.4157C247.47 79.6081 247.541 79.7647 247.684 79.8853C247.831 80.0059 248.072 80.105 248.408 80.1825L249.537 80.4237C250.163 80.5587 250.628 80.7727 250.932 81.0656C251.24 81.3585 251.395 81.7419 251.398 82.2157C251.395 82.6321 251.273 82.9997 251.031 83.3185C250.793 83.6344 250.461 83.8814 250.036 84.0594C249.611 84.2375 249.123 84.3265 248.572 84.3265C247.762 84.3265 247.11 84.1571 246.616 83.8182C246.122 83.4764 245.828 83.0012 245.733 82.3923L247.254 82.2459C247.323 82.5446 247.469 82.77 247.693 82.9222C247.917 83.0744 248.209 83.1505 248.567 83.1505C248.938 83.1505 249.235 83.0744 249.459 82.9222C249.686 82.77 249.799 82.5819 249.799 82.3579C249.799 82.1683 249.726 82.0118 249.58 81.8883C249.436 81.7649 249.212 81.6701 248.908 81.604L247.779 81.3671C247.145 81.235 246.675 81.0125 246.371 80.6994C246.066 80.3835 245.915 79.9844 245.918 79.5019C245.915 79.0941 246.026 78.7409 246.25 78.4422C246.477 78.1407 246.791 77.9081 247.193 77.7444C247.598 77.5778 248.065 77.4945 248.593 77.4945C249.369 77.4945 249.979 77.6596 250.424 77.9899C250.872 78.3202 251.149 78.7667 251.255 79.3296Z" fill="#171A22"/>
<path d="M90.9689 134.013L98.0852 119.919V119.807H89.7628V116.369H102.496V119.833L95.3541 134.013H90.9689ZM111.374 134.255C110.002 134.255 108.775 134.036 107.696 133.6C106.622 133.158 105.777 132.56 105.163 131.808C104.554 131.05 104.249 130.194 104.249 129.241C104.249 128.511 104.425 127.842 104.775 127.233C105.125 126.624 105.599 126.119 106.197 125.717C106.8 125.309 107.472 125.048 108.213 124.933V124.795C107.242 124.617 106.446 124.166 105.826 123.442C105.212 122.719 104.904 121.872 104.904 120.901C104.904 119.982 105.183 119.163 105.74 118.445C106.303 117.728 107.07 117.162 108.04 116.748C109.017 116.335 110.128 116.128 111.374 116.128C112.621 116.128 113.729 116.335 114.7 116.748C115.676 117.162 116.443 117.728 117 118.445C117.563 119.163 117.845 119.982 117.845 120.901C117.845 121.877 117.532 122.727 116.905 123.451C116.285 124.169 115.495 124.617 114.536 124.795V124.933C115.271 125.048 115.938 125.309 116.535 125.717C117.138 126.119 117.615 126.624 117.965 127.233C118.321 127.842 118.499 128.511 118.499 129.241C118.499 130.194 118.192 131.05 117.577 131.808C116.963 132.56 116.119 133.158 115.045 133.6C113.976 134.036 112.753 134.255 111.374 134.255ZM111.374 131.231C111.897 131.231 112.357 131.133 112.753 130.938C113.149 130.737 113.459 130.458 113.683 130.102C113.913 129.746 114.028 129.344 114.028 128.896C114.028 128.436 113.913 128.029 113.683 127.673C113.454 127.316 113.138 127.038 112.736 126.837C112.339 126.63 111.886 126.527 111.374 126.527C110.869 126.527 110.415 126.63 110.013 126.837C109.611 127.038 109.295 127.316 109.065 127.673C108.836 128.029 108.721 128.436 108.721 128.896C108.721 129.344 108.833 129.746 109.057 130.102C109.287 130.452 109.6 130.728 109.996 130.929C110.398 131.13 110.857 131.231 111.374 131.231ZM111.374 123.52C111.822 123.52 112.219 123.428 112.563 123.244C112.914 123.06 113.186 122.805 113.382 122.477C113.583 122.15 113.683 121.78 113.683 121.366C113.683 120.953 113.583 120.588 113.382 120.272C113.186 119.956 112.917 119.709 112.572 119.531C112.227 119.347 111.828 119.255 111.374 119.255C110.926 119.255 110.527 119.347 110.177 119.531C109.827 119.709 109.554 119.956 109.358 120.272C109.163 120.588 109.065 120.953 109.065 121.366C109.065 121.78 109.163 122.15 109.358 122.477C109.559 122.799 109.835 123.055 110.185 123.244C110.536 123.428 110.932 123.52 111.374 123.52ZM130.759 130.705V129.775C130.759 129.051 130.914 128.382 131.224 127.767C131.54 127.153 131.997 126.659 132.594 126.285C133.191 125.912 133.921 125.725 134.782 125.725C135.661 125.725 136.399 125.912 136.996 126.285C137.6 126.653 138.053 127.144 138.358 127.759C138.668 128.367 138.823 129.039 138.823 129.775V130.705C138.823 131.429 138.668 132.098 138.358 132.713C138.048 133.327 137.591 133.821 136.988 134.194C136.385 134.568 135.65 134.754 134.782 134.754C133.909 134.754 133.174 134.568 132.577 134.194C131.979 133.821 131.526 133.327 131.216 132.713C130.911 132.098 130.759 131.429 130.759 130.705ZM133.507 129.775V130.705C133.507 131.073 133.596 131.426 133.774 131.765C133.958 132.104 134.294 132.273 134.782 132.273C135.282 132.273 135.618 132.109 135.79 131.782C135.963 131.449 136.049 131.09 136.049 130.705V129.775C136.049 129.39 135.966 129.028 135.799 128.689C135.638 128.345 135.299 128.172 134.782 128.172C134.3 128.172 133.967 128.345 133.783 128.689C133.599 129.028 133.507 129.39 133.507 129.775ZM121.609 120.608V119.677C121.609 118.942 121.767 118.27 122.083 117.661C122.405 117.047 122.864 116.556 123.462 116.188C124.059 115.815 124.783 115.628 125.633 115.628C126.512 115.628 127.25 115.815 127.847 116.188C128.45 116.556 128.907 117.047 129.217 117.661C129.527 118.27 129.682 118.942 129.682 119.677V120.608C129.682 121.343 129.524 122.015 129.208 122.624C128.898 123.233 128.441 123.718 127.838 124.08C127.235 124.442 126.5 124.623 125.633 124.623C124.766 124.623 124.03 124.439 123.427 124.071C122.83 123.704 122.376 123.216 122.066 122.607C121.762 121.998 121.609 121.332 121.609 120.608ZM124.384 119.677V120.608C124.384 120.993 124.473 121.352 124.651 121.685C124.834 122.012 125.162 122.176 125.633 122.176C126.138 122.176 126.474 122.012 126.641 121.685C126.813 121.352 126.899 120.993 126.899 120.608V119.677C126.899 119.293 126.819 118.931 126.658 118.592C126.497 118.247 126.155 118.075 125.633 118.075C125.15 118.075 124.82 118.25 124.642 118.601C124.47 118.951 124.384 119.31 124.384 119.677ZM122.91 134.013L135.041 116.369H137.393L125.262 134.013H122.91Z" fill="#171A22"/>
<path d="M164.676 111.587V109.408L168.839 105.964C169.115 105.735 169.351 105.52 169.547 105.321C169.747 105.117 169.9 104.908 170.005 104.694C170.114 104.48 170.168 104.242 170.168 103.98C170.168 103.693 170.107 103.448 169.983 103.245C169.863 103.041 169.696 102.885 169.482 102.776C169.267 102.663 169.02 102.607 168.741 102.607C168.461 102.607 168.214 102.663 168 102.776C167.789 102.889 167.625 103.054 167.509 103.272C167.393 103.49 167.335 103.755 167.335 104.067H164.458C164.458 103.283 164.634 102.607 164.986 102.04C165.339 101.474 165.836 101.038 166.479 100.733C167.122 100.427 167.876 100.275 168.741 100.275C169.634 100.275 170.408 100.418 171.062 100.705C171.72 100.989 172.226 101.388 172.582 101.904C172.942 102.42 173.122 103.025 173.122 103.719C173.122 104.147 173.033 104.574 172.855 104.999C172.677 105.421 172.357 105.887 171.896 106.4C171.434 106.912 170.779 107.522 169.929 108.231L168.882 109.102V109.168H173.242V111.587H164.676ZM178.955 111.74C178.076 111.74 177.295 111.589 176.612 111.287C175.933 110.982 175.399 110.563 175.01 110.029C174.621 109.495 174.425 108.881 174.421 108.187H177.473C177.477 108.401 177.542 108.594 177.669 108.765C177.8 108.932 177.978 109.062 178.203 109.157C178.428 109.251 178.686 109.299 178.977 109.299C179.257 109.299 179.504 109.249 179.718 109.151C179.932 109.05 180.099 108.91 180.219 108.732C180.339 108.554 180.397 108.35 180.394 108.122C180.397 107.896 180.328 107.696 180.187 107.522C180.048 107.348 179.854 107.212 179.603 107.113C179.353 107.015 179.064 106.966 178.737 106.966H177.604V104.874H178.737C179.039 104.874 179.304 104.825 179.533 104.727C179.765 104.629 179.945 104.492 180.072 104.318C180.203 104.144 180.266 103.944 180.263 103.719C180.266 103.501 180.214 103.308 180.105 103.141C179.996 102.974 179.843 102.843 179.647 102.749C179.455 102.654 179.231 102.607 178.977 102.607C178.701 102.607 178.454 102.656 178.236 102.754C178.021 102.852 177.852 102.988 177.729 103.163C177.605 103.337 177.542 103.537 177.538 103.762H174.639C174.643 103.079 174.83 102.476 175.201 101.953C175.575 101.43 176.087 101.02 176.737 100.722C177.387 100.424 178.134 100.275 178.977 100.275C179.801 100.275 180.53 100.415 181.162 100.694C181.798 100.974 182.294 101.359 182.65 101.85C183.009 102.336 183.187 102.894 183.184 103.522C183.191 104.147 182.976 104.66 182.541 105.059C182.108 105.459 181.56 105.695 180.895 105.768V105.855C181.796 105.953 182.473 106.229 182.927 106.683C183.382 107.133 183.605 107.7 183.598 108.383C183.601 109.037 183.405 109.616 183.009 110.121C182.617 110.626 182.07 111.022 181.369 111.309C180.671 111.596 179.867 111.74 178.955 111.74ZM187.593 110.061L187.55 110.672C187.513 111.195 187.426 111.696 187.288 112.176C187.154 112.655 187.01 113.08 186.858 113.451C186.709 113.821 186.591 114.108 186.503 114.312H184.651C184.709 114.108 184.791 113.814 184.896 113.429C185.005 113.048 185.103 112.615 185.19 112.132C185.281 111.653 185.326 111.166 185.326 110.672V110.061H187.593ZM189.483 111.587L193.864 102.912V102.847H188.72V100.427H197.002V102.847L192.6 111.587H189.483ZM199.148 111.587L203.529 102.912V102.847H198.385V100.427H206.668V102.847L202.265 111.587H199.148ZM208.813 111.587L213.194 102.912V102.847H208.051V100.427H216.333V102.847L211.93 111.587H208.813Z" fill="#171A22"/>
<rect x="163.935" y="121.145" width="275.305" height="14.6842" fill="#E9EBEF"/>
<rect x="164.435" y="121.145" width="222.391" height="14.6842" fill="#00A8FF"/>
<rect x="163.935" y="121.145" width="82.3769" height="14.6842" fill="#FF642D"/>
<rect x="175.879" y="146.123" width="25.5426" height="5.3913" rx="2.69565" fill="#E9EBEF"/>
<rect x="163.935" y="144.775" width="8.08696" height="8.08695" rx="4.04347" fill="#84D149"/>
<rect x="229.586" y="146.123" width="25.5426" height="5.3913" rx="2.69565" fill="#E9EBEF"/>
<rect x="217.642" y="144.775" width="8.08696" height="8.08695" rx="4.04347" fill="#F51A38"/>
<rect x="283.292" y="146.123" width="25.5426" height="5.3913" rx="2.69565" fill="#E9EBEF"/>
<rect x="271.348" y="144.775" width="8.08696" height="8.08695" rx="4.04347" fill="#FF622D"/>
<rect x="336.999" y="146.123" width="25.5426" height="5.3913" rx="2.69565" fill="#E9EBEF"/>
<rect x="325.054" y="144.775" width="8.08696" height="8.08695" rx="4.04347" fill="#00A8FF"/>
<rect x="390.704" y="146.123" width="25.5426" height="5.3913" rx="2.69565" fill="#E9EBEF"/>
<rect x="378.76" y="144.775" width="8.08696" height="8.08695" rx="4.04347" fill="#E9EBEF"/>
<rect x="163.935" y="121.145" width="30.6519" height="14.6842" fill="#F51A38"/>
<rect x="163.935" y="121.145" width="15.3259" height="14.6842" fill="#84D149"/>
<path d="M24.7845 186.157V177.335H30.5223V178.675H26.3826V181.07H30.2251V182.41H26.3826V184.818H30.5568V186.157H24.7845ZM32.0838 186.157V179.541H33.5958V180.644H33.6647C33.7854 180.262 33.9921 179.967 34.285 179.761C34.5808 179.551 34.9183 179.446 35.2974 179.446C35.3835 179.446 35.4797 179.45 35.586 179.459C35.6951 179.465 35.7856 179.475 35.8574 179.489V180.924C35.7913 180.901 35.6865 180.881 35.5429 180.863C35.4022 180.843 35.2658 180.833 35.1337 180.833C34.8494 180.833 34.5938 180.895 34.3669 181.018C34.1429 181.139 33.9663 181.307 33.837 181.522C33.7078 181.738 33.6432 181.986 33.6432 182.268V186.157H32.0838ZM36.8933 186.157V179.541H38.4053V180.644H38.4743C38.5949 180.262 38.8017 179.967 39.0946 179.761C39.3904 179.551 39.7278 179.446 40.1069 179.446C40.193 179.446 40.2892 179.45 40.3955 179.459C40.5046 179.465 40.5951 179.475 40.6669 179.489V180.924C40.6008 180.901 40.496 180.881 40.3524 180.863C40.2117 180.843 40.0753 180.833 39.9432 180.833C39.6589 180.833 39.4033 180.895 39.1764 181.018C38.9524 181.139 38.7758 181.307 38.6466 181.522C38.5173 181.738 38.4527 181.986 38.4527 182.268V186.157H36.8933ZM44.3166 186.287C43.6704 186.287 43.1104 186.145 42.6366 185.86C42.1627 185.576 41.7951 185.178 41.5338 184.667C41.2753 184.156 41.1461 183.559 41.1461 182.875C41.1461 182.192 41.2753 181.593 41.5338 181.079C41.7951 180.565 42.1627 180.165 42.6366 179.881C43.1104 179.597 43.6704 179.455 44.3166 179.455C44.9627 179.455 45.5227 179.597 45.9966 179.881C46.4704 180.165 46.8366 180.565 47.095 181.079C47.3563 181.593 47.487 182.192 47.487 182.875C47.487 183.559 47.3563 184.156 47.095 184.667C46.8366 185.178 46.4704 185.576 45.9966 185.86C45.5227 186.145 44.9627 186.287 44.3166 186.287ZM44.3252 185.037C44.6755 185.037 44.9685 184.941 45.2039 184.749C45.4394 184.554 45.6146 184.292 45.7295 183.965C45.8472 183.637 45.9061 183.273 45.9061 182.871C45.9061 182.466 45.8472 182.1 45.7295 181.772C45.6146 181.442 45.4394 181.179 45.2039 180.984C44.9685 180.789 44.6755 180.691 44.3252 180.691C43.9662 180.691 43.6675 180.789 43.4292 180.984C43.1937 181.179 43.0171 181.442 42.8993 181.772C42.7845 182.1 42.727 182.466 42.727 182.871C42.727 183.273 42.7845 183.637 42.8993 183.965C43.0171 184.292 43.1937 184.554 43.4292 184.749C43.6675 184.941 43.9662 185.037 44.3252 185.037ZM48.8105 186.157V179.541H50.3225V180.644H50.3915C50.5121 180.262 50.7189 179.967 51.0118 179.761C51.3076 179.551 51.645 179.446 52.0241 179.446C52.1102 179.446 52.2064 179.45 52.3127 179.459C52.4218 179.465 52.5123 179.475 52.5841 179.489V180.924C52.518 180.901 52.4132 180.881 52.2696 180.863C52.1289 180.843 51.9925 180.833 51.8604 180.833C51.5761 180.833 51.3205 180.895 51.0936 181.018C50.8696 181.139 50.693 181.307 50.5638 181.522C50.4345 181.738 50.3699 181.986 50.3699 182.268V186.157H48.8105ZM58.8496 181.29L57.4281 181.445C57.3879 181.301 57.3175 181.166 57.217 181.04C57.1193 180.914 56.9872 180.812 56.8207 180.734C56.6541 180.657 56.4502 180.618 56.209 180.618C55.8845 180.618 55.6117 180.688 55.3905 180.829C55.1723 180.97 55.0646 181.152 55.0675 181.376C55.0646 181.568 55.1349 181.725 55.2785 181.845C55.425 181.966 55.6662 182.065 56.0022 182.143L57.1308 182.384C57.7569 182.519 58.2221 182.733 58.5265 183.026C58.8338 183.319 58.9889 183.702 58.9918 184.176C58.9889 184.592 58.8668 184.96 58.6256 185.279C58.3872 185.595 58.0555 185.842 57.6305 186.02C57.2055 186.198 56.7173 186.287 56.1659 186.287C55.3561 186.287 54.7042 186.117 54.2102 185.778C53.7163 185.437 53.4219 184.961 53.3272 184.353L54.8478 184.206C54.9167 184.505 55.0631 184.73 55.2871 184.882C55.5111 185.035 55.8026 185.111 56.1616 185.111C56.5321 185.111 56.8293 185.035 57.0533 184.882C57.2802 184.73 57.3936 184.542 57.3936 184.318C57.3936 184.129 57.3204 183.972 57.1739 183.849C57.0303 183.725 56.8063 183.63 56.5019 183.564L55.3733 183.327C54.7386 183.195 54.2691 182.973 53.9647 182.66C53.6603 182.344 53.5095 181.945 53.5124 181.462C53.5095 181.054 53.6201 180.701 53.8441 180.402C54.0709 180.101 54.3854 179.868 54.7875 179.705C55.1924 179.538 55.659 179.455 56.1875 179.455C56.9628 179.455 57.5731 179.62 58.0182 179.95C58.4662 180.28 58.7433 180.727 58.8496 181.29Z" fill="#171A22"/>
<path d="M28.7265 203.446C27.9824 203.446 27.319 203.309 26.7363 203.035C26.1572 202.761 25.6974 202.384 25.3569 201.903C25.0164 201.422 24.8392 200.871 24.8251 200.25H27.0364C27.061 200.667 27.2365 201.006 27.5629 201.266C27.8893 201.526 28.2772 201.655 28.7265 201.655C29.0845 201.655 29.4004 201.576 29.6742 201.419C29.9514 201.257 30.1673 201.034 30.3217 200.75C30.4797 200.462 30.5587 200.132 30.5587 199.76C30.5587 199.381 30.4779 199.048 30.3165 198.76C30.1585 198.472 29.9392 198.247 29.6584 198.086C29.3776 197.924 29.0564 197.842 28.6949 197.838C28.379 197.838 28.0719 197.903 27.7735 198.033C27.4787 198.163 27.2488 198.34 27.0838 198.565L25.0568 198.202L25.5675 192.515H32.1592V194.379H27.4471L27.168 197.08H27.2312C27.4208 196.813 27.7068 196.592 28.0894 196.417C28.472 196.241 28.9002 196.154 29.3741 196.154C30.0234 196.154 30.6025 196.306 31.1115 196.612C31.6204 196.917 32.0223 197.336 32.3172 197.87C32.612 198.4 32.7577 199.011 32.7541 199.702C32.7577 200.429 32.5892 201.075 32.2487 201.64C31.9118 202.201 31.4397 202.643 30.8324 202.966C30.2287 203.286 29.5267 203.446 28.7265 203.446ZM38.3297 203.446C37.5435 203.446 36.8433 203.31 36.229 203.04C35.6183 202.766 35.1357 202.391 34.7811 201.913C34.4302 201.433 34.2494 200.878 34.2389 200.25H36.5344C36.5484 200.513 36.6344 200.745 36.7924 200.945C36.9538 201.141 37.1679 201.294 37.4347 201.403C37.7014 201.512 38.0015 201.566 38.335 201.566C38.6825 201.566 38.9896 201.505 39.2564 201.382C39.5231 201.259 39.732 201.089 39.8829 200.871C40.0338 200.653 40.1093 200.402 40.1093 200.118C40.1093 199.83 40.0285 199.576 39.8671 199.355C39.7091 199.13 39.481 198.955 39.1826 198.828C38.8878 198.702 38.5368 198.639 38.1297 198.639H37.124V196.964H38.1297C38.4736 196.964 38.7772 196.905 39.0405 196.785C39.3072 196.666 39.5143 196.501 39.6618 196.29C39.8092 196.076 39.8829 195.827 39.8829 195.543C39.8829 195.273 39.8179 195.036 39.6881 194.832C39.5617 194.625 39.3827 194.464 39.1511 194.348C38.9229 194.232 38.6561 194.174 38.3508 194.174C38.0419 194.174 37.7594 194.23 37.5031 194.342C37.2469 194.451 37.0416 194.607 36.8871 194.811C36.7327 195.015 36.6502 195.253 36.6397 195.527H34.4547C34.4653 194.906 34.6425 194.358 34.9865 193.884C35.3305 193.411 35.7938 193.04 36.3764 192.773C36.9626 192.503 37.6242 192.368 38.3613 192.368C39.1054 192.368 39.7565 192.503 40.3146 192.773C40.8727 193.044 41.3062 193.409 41.615 193.869C41.9274 194.325 42.0819 194.837 42.0784 195.406C42.0819 196.01 41.8941 196.513 41.515 196.917C41.1394 197.321 40.6498 197.577 40.0461 197.686V197.77C40.8393 197.872 41.4431 198.147 41.8572 198.597C42.2749 199.042 42.482 199.6 42.4785 200.271C42.482 200.885 42.3048 201.431 41.9467 201.908C41.5922 202.386 41.1026 202.761 40.4778 203.035C39.853 203.309 39.137 203.446 38.3297 203.446ZM48.0185 192.368C48.5731 192.368 49.1066 192.461 49.6191 192.647C50.135 192.833 50.5948 193.13 50.9985 193.537C51.4056 193.944 51.7268 194.485 51.962 195.158C52.2007 195.829 52.3217 196.652 52.3253 197.628C52.3253 198.544 52.2217 199.362 52.0146 200.081C51.811 200.797 51.518 201.406 51.1354 201.908C50.7528 202.41 50.2912 202.793 49.7507 203.056C49.2102 203.316 48.6065 203.446 47.9396 203.446C47.22 203.446 46.5847 203.307 46.0336 203.03C45.4826 202.749 45.0386 202.368 44.7016 201.887C44.3682 201.403 44.1663 200.859 44.0961 200.255H46.3443C46.432 200.648 46.6163 200.953 46.8971 201.171C47.1779 201.385 47.5254 201.492 47.9396 201.492C48.6416 201.492 49.1751 201.187 49.5401 200.576C49.9051 199.962 50.0894 199.121 50.0929 198.054H50.0192C49.8578 198.37 49.6401 198.642 49.3664 198.87C49.0926 199.095 48.7784 199.269 48.4239 199.392C48.0729 199.514 47.6991 199.576 47.3025 199.576C46.6672 199.576 46.1003 199.427 45.6019 199.128C45.1035 198.83 44.7104 198.419 44.4226 197.896C44.1348 197.373 43.9909 196.777 43.9909 196.106C43.9873 195.383 44.1541 194.739 44.491 194.174C44.828 193.609 45.2983 193.167 45.902 192.847C46.5092 192.524 47.2148 192.365 48.0185 192.368ZM48.0343 194.158C47.6798 194.158 47.3639 194.242 47.0866 194.411C46.8129 194.579 46.5952 194.806 46.4338 195.09C46.2758 195.374 46.1986 195.692 46.2021 196.043C46.2021 196.398 46.2793 196.717 46.4338 197.001C46.5917 197.282 46.8058 197.507 47.0761 197.675C47.3499 197.84 47.6623 197.923 48.0133 197.923C48.2765 197.923 48.5205 197.873 48.7451 197.775C48.9697 197.677 49.1645 197.542 49.3295 197.37C49.498 197.194 49.6296 196.992 49.7244 196.764C49.8191 196.536 49.8665 196.294 49.8665 196.038C49.863 195.697 49.7823 195.385 49.6243 195.101C49.4664 194.816 49.2488 194.588 48.9715 194.416C48.6942 194.244 48.3818 194.158 48.0343 194.158Z" fill="#F51A38"/>
<path d="M166.661 186.157L164.171 177.335H165.89L167.48 183.818H167.562L169.259 177.335H170.823L172.524 183.823H172.602L174.191 177.335H175.91L173.42 186.157H171.843L170.077 179.967H170.008L168.238 186.157H166.661ZM178.178 186.291C177.759 186.291 177.381 186.216 177.045 186.067C176.712 185.915 176.448 185.691 176.252 185.395C176.06 185.099 175.964 184.735 175.964 184.301C175.964 183.928 176.033 183.619 176.171 183.375C176.308 183.131 176.496 182.935 176.735 182.789C176.973 182.642 177.242 182.532 177.54 182.457C177.842 182.38 178.154 182.324 178.475 182.289C178.863 182.249 179.177 182.213 179.419 182.181C179.66 182.147 179.835 182.095 179.944 182.026C180.056 181.955 180.112 181.844 180.112 181.695V181.669C180.112 181.344 180.016 181.093 179.823 180.915C179.631 180.737 179.354 180.648 178.992 180.648C178.61 180.648 178.307 180.731 178.083 180.898C177.862 181.064 177.713 181.261 177.635 181.488L176.179 181.281C176.294 180.879 176.484 180.543 176.748 180.273C177.012 180 177.335 179.796 177.717 179.661C178.099 179.524 178.521 179.455 178.983 179.455C179.302 179.455 179.62 179.492 179.935 179.567C180.251 179.641 180.54 179.765 180.801 179.937C181.063 180.107 181.272 180.338 181.43 180.631C181.591 180.924 181.671 181.29 181.671 181.729V186.157H180.172V185.249H180.121C180.026 185.432 179.892 185.605 179.72 185.765C179.551 185.923 179.337 186.051 179.078 186.149C178.823 186.244 178.523 186.291 178.178 186.291ZM178.583 185.145C178.896 185.145 179.167 185.083 179.397 184.96C179.627 184.834 179.803 184.667 179.927 184.46C180.053 184.253 180.116 184.028 180.116 183.784V183.004C180.068 183.044 179.984 183.082 179.867 183.116C179.752 183.151 179.622 183.181 179.479 183.207C179.335 183.233 179.193 183.256 179.052 183.276C178.912 183.296 178.79 183.313 178.686 183.327C178.454 183.359 178.245 183.411 178.062 183.482C177.878 183.554 177.733 183.655 177.627 183.784C177.52 183.91 177.467 184.074 177.467 184.275C177.467 184.562 177.572 184.779 177.782 184.925C177.991 185.072 178.258 185.145 178.583 185.145ZM183.239 186.157V179.541H184.751V180.644H184.82C184.941 180.262 185.148 179.967 185.441 179.761C185.736 179.551 186.074 179.446 186.453 179.446C186.539 179.446 186.635 179.45 186.742 179.459C186.851 179.465 186.941 179.475 187.013 179.489V180.924C186.947 180.901 186.842 180.881 186.699 180.863C186.558 180.843 186.421 180.833 186.289 180.833C186.005 180.833 185.749 180.895 185.523 181.018C185.299 181.139 185.122 181.307 184.993 181.522C184.863 181.738 184.799 181.986 184.799 182.268V186.157H183.239ZM189.608 182.281V186.157H188.049V179.541H189.539V180.665H189.617C189.769 180.295 190.012 180 190.345 179.782C190.681 179.564 191.096 179.455 191.59 179.455C192.046 179.455 192.444 179.552 192.783 179.748C193.125 179.943 193.389 180.226 193.576 180.596C193.765 180.967 193.859 181.416 193.856 181.945V186.157H192.296V182.186C192.296 181.744 192.181 181.397 191.952 181.148C191.725 180.898 191.41 180.773 191.008 180.773C190.736 180.773 190.493 180.833 190.28 180.954C190.071 181.072 189.906 181.242 189.785 181.466C189.667 181.69 189.608 181.962 189.608 182.281ZM195.441 186.157V179.541H197V186.157H195.441ZM196.225 178.602C195.978 178.602 195.765 178.52 195.587 178.356C195.409 178.19 195.32 177.99 195.32 177.757C195.32 177.522 195.409 177.322 195.587 177.159C195.765 176.992 195.978 176.909 196.225 176.909C196.475 176.909 196.687 176.992 196.862 177.159C197.041 177.322 197.13 177.522 197.13 177.757C197.13 177.99 197.041 178.19 196.862 178.356C196.687 178.52 196.475 178.602 196.225 178.602ZM200.163 182.281V186.157H198.604V179.541H200.094V180.665H200.172C200.324 180.295 200.567 180 200.9 179.782C201.236 179.564 201.651 179.455 202.145 179.455C202.601 179.455 202.999 179.552 203.338 179.748C203.68 179.943 203.944 180.226 204.131 180.596C204.32 180.967 204.413 181.416 204.411 181.945V186.157H202.851V182.186C202.851 181.744 202.736 181.397 202.507 181.148C202.28 180.898 201.965 180.773 201.563 180.773C201.29 180.773 201.048 180.833 200.835 180.954C200.626 181.072 200.46 181.242 200.34 181.466C200.222 181.69 200.163 181.962 200.163 182.281ZM208.873 188.777C208.313 188.777 207.832 188.7 207.43 188.548C207.028 188.399 206.705 188.198 206.461 187.945C206.217 187.692 206.048 187.412 205.953 187.105L207.357 186.765C207.42 186.894 207.512 187.022 207.633 187.148C207.753 187.277 207.916 187.384 208.12 187.467C208.326 187.553 208.586 187.596 208.899 187.596C209.341 187.596 209.708 187.489 209.998 187.273C210.288 187.061 210.433 186.71 210.433 186.222V184.969H210.355C210.275 185.129 210.157 185.294 210.002 185.464C209.85 185.633 209.647 185.776 209.395 185.89C209.145 186.005 208.83 186.063 208.451 186.063C207.943 186.063 207.482 185.944 207.068 185.705C206.658 185.464 206.33 185.105 206.086 184.628C205.845 184.149 205.724 183.548 205.724 182.828C205.724 182.101 205.845 181.488 206.086 180.988C206.33 180.486 206.659 180.105 207.073 179.847C207.486 179.585 207.947 179.455 208.456 179.455C208.843 179.455 209.162 179.521 209.412 179.653C209.665 179.782 209.866 179.939 210.015 180.122C210.164 180.303 210.278 180.474 210.355 180.635H210.441V179.541H211.979V186.265C211.979 186.831 211.844 187.299 211.574 187.669C211.304 188.04 210.935 188.317 210.467 188.501C209.999 188.685 209.468 188.777 208.873 188.777ZM208.886 184.839C209.217 184.839 209.498 184.759 209.731 184.598C209.963 184.437 210.14 184.206 210.26 183.905C210.381 183.603 210.441 183.241 210.441 182.819C210.441 182.403 210.381 182.038 210.26 181.725C210.143 181.412 209.968 181.169 209.735 180.997C209.505 180.822 209.222 180.734 208.886 180.734C208.539 180.734 208.249 180.825 208.016 181.005C207.784 181.186 207.608 181.435 207.491 181.751C207.373 182.064 207.314 182.42 207.314 182.819C207.314 183.224 207.373 183.579 207.491 183.883C207.611 184.185 207.788 184.42 208.02 184.589C208.256 184.756 208.545 184.839 208.886 184.839ZM218.807 181.29L217.385 181.445C217.345 181.301 217.275 181.166 217.174 181.04C217.077 180.914 216.945 180.812 216.778 180.734C216.611 180.657 216.408 180.618 216.166 180.618C215.842 180.618 215.569 180.688 215.348 180.829C215.13 180.97 215.022 181.152 215.025 181.376C215.022 181.568 215.092 181.725 215.236 181.845C215.382 181.966 215.624 182.065 215.96 182.143L217.088 182.384C217.714 182.519 218.179 182.733 218.484 183.026C218.791 183.319 218.946 183.702 218.949 184.176C218.946 184.592 218.824 184.96 218.583 185.279C218.345 185.595 218.013 185.842 217.588 186.02C217.163 186.198 216.675 186.287 216.123 186.287C215.313 186.287 214.661 186.117 214.168 185.778C213.674 185.437 213.379 184.961 213.284 184.353L214.805 184.206C214.874 184.505 215.02 184.73 215.244 184.882C215.468 185.035 215.76 185.111 216.119 185.111C216.489 185.111 216.787 185.035 217.011 184.882C217.237 184.73 217.351 184.542 217.351 184.318C217.351 184.129 217.278 183.972 217.131 183.849C216.988 183.725 216.764 183.63 216.459 183.564L215.331 183.327C214.696 183.195 214.226 182.973 213.922 182.66C213.618 182.344 213.467 181.945 213.47 181.462C213.467 181.054 213.577 180.701 213.801 180.402C214.028 180.101 214.343 179.868 214.745 179.705C215.15 179.538 215.616 179.455 216.145 179.455C216.92 179.455 217.53 179.62 217.976 179.95C218.424 180.28 218.701 180.727 218.807 181.29Z" fill="#171A22"/>
<path d="M168.831 203.446C168.02 203.446 167.299 203.314 166.667 203.051C166.039 202.784 165.546 202.421 165.188 201.961C164.83 201.501 164.651 200.98 164.651 200.397C164.651 199.948 164.752 199.535 164.956 199.16C165.163 198.781 165.444 198.467 165.798 198.217C166.153 197.965 166.549 197.803 166.988 197.733V197.659C166.413 197.544 165.946 197.264 165.588 196.822C165.23 196.376 165.051 195.859 165.051 195.269C165.051 194.711 165.214 194.214 165.54 193.779C165.867 193.34 166.314 192.996 166.883 192.747C167.455 192.494 168.104 192.368 168.831 192.368C169.558 192.368 170.205 192.494 170.774 192.747C171.346 193 171.795 193.346 172.122 193.784C172.448 194.22 172.613 194.714 172.616 195.269C172.613 195.862 172.43 196.38 172.069 196.822C171.707 197.264 171.244 197.544 170.679 197.659V197.733C171.111 197.803 171.502 197.965 171.853 198.217C172.208 198.467 172.488 198.781 172.695 199.16C172.906 199.535 173.013 199.948 173.017 200.397C173.013 200.98 172.832 201.501 172.474 201.961C172.116 202.421 171.621 202.784 170.99 203.051C170.361 203.314 169.642 203.446 168.831 203.446ZM168.831 201.771C169.192 201.771 169.508 201.706 169.779 201.576C170.049 201.443 170.26 201.261 170.41 201.029C170.565 200.794 170.642 200.523 170.642 200.218C170.642 199.906 170.563 199.63 170.405 199.392C170.247 199.149 170.033 198.96 169.763 198.823C169.493 198.682 169.182 198.612 168.831 198.612C168.483 198.612 168.173 198.682 167.899 198.823C167.625 198.96 167.409 199.149 167.251 199.392C167.097 199.63 167.02 199.906 167.02 200.218C167.02 200.523 167.095 200.794 167.246 201.029C167.397 201.261 167.61 201.443 167.883 201.576C168.157 201.706 168.473 201.771 168.831 201.771ZM168.831 196.954C169.133 196.954 169.401 196.892 169.637 196.77C169.872 196.647 170.056 196.476 170.189 196.259C170.323 196.041 170.389 195.79 170.389 195.506C170.389 195.225 170.323 194.979 170.189 194.769C170.056 194.555 169.873 194.388 169.642 194.269C169.41 194.146 169.14 194.084 168.831 194.084C168.526 194.084 168.255 194.146 168.02 194.269C167.785 194.388 167.601 194.555 167.467 194.769C167.337 194.979 167.273 195.225 167.273 195.506C167.273 195.79 167.339 196.041 167.473 196.259C167.606 196.476 167.79 196.647 168.025 196.77C168.261 196.892 168.529 196.954 168.831 196.954ZM176.765 201.824L176.707 202.403C176.662 202.866 176.574 203.328 176.444 203.788C176.318 204.251 176.184 204.67 176.044 205.046C175.907 205.422 175.796 205.716 175.712 205.931H174.259C174.312 205.723 174.384 205.434 174.475 205.062C174.566 204.693 174.652 204.279 174.733 203.819C174.814 203.36 174.865 202.891 174.886 202.414L174.912 201.824H176.765ZM182.588 203.535C181.683 203.532 180.903 203.309 180.251 202.866C179.601 202.424 179.101 201.784 178.75 200.945C178.403 200.106 178.231 199.097 178.234 197.917C178.234 196.741 178.408 195.739 178.755 194.911C179.106 194.083 179.607 193.453 180.256 193.021C180.909 192.586 181.686 192.368 182.588 192.368C183.49 192.368 184.266 192.586 184.915 193.021C185.568 193.456 186.07 194.088 186.421 194.916C186.772 195.741 186.946 196.741 186.942 197.917C186.942 199.1 186.767 200.111 186.416 200.95C186.068 201.789 185.57 202.429 184.921 202.872C184.271 203.314 183.494 203.535 182.588 203.535ZM182.588 201.645C183.206 201.645 183.699 201.334 184.068 200.713C184.436 200.092 184.619 199.16 184.615 197.917C184.615 197.1 184.531 196.419 184.363 195.875C184.198 195.33 183.962 194.922 183.657 194.648C183.355 194.374 182.999 194.237 182.588 194.237C181.974 194.237 181.483 194.544 181.114 195.158C180.746 195.773 180.56 196.692 180.556 197.917C180.556 198.746 180.638 199.437 180.803 199.992C180.972 200.543 181.209 200.957 181.514 201.234C181.82 201.508 182.178 201.645 182.588 201.645ZM188.705 203.298L193.175 194.453V194.379H187.968V192.515H195.533V194.406L191.058 203.298H188.705ZM197.096 203.298V201.655L200.934 198.102C201.26 197.786 201.534 197.501 201.755 197.249C201.98 196.996 202.15 196.749 202.266 196.506C202.382 196.261 202.44 195.996 202.44 195.711C202.44 195.395 202.368 195.123 202.224 194.895C202.08 194.664 201.883 194.486 201.634 194.363C201.385 194.237 201.102 194.174 200.787 194.174C200.457 194.174 200.169 194.241 199.923 194.374C199.677 194.507 199.488 194.699 199.354 194.948C199.221 195.197 199.154 195.494 199.154 195.838H196.991C196.991 195.132 197.15 194.52 197.47 194C197.789 193.481 198.237 193.079 198.812 192.795C199.388 192.51 200.051 192.368 200.802 192.368C201.575 192.368 202.247 192.505 202.819 192.779C203.394 193.049 203.842 193.425 204.161 193.905C204.481 194.386 204.64 194.937 204.64 195.559C204.64 195.966 204.56 196.368 204.398 196.764C204.24 197.161 203.958 197.601 203.551 198.086C203.143 198.567 202.57 199.144 201.829 199.818L200.255 201.361V201.434H204.783V203.298H197.096Z" fill="#FF622D"/>
<path d="M317.005 177.335V186.157H315.584L311.427 180.148H311.354V186.157H309.755V177.335H311.186L315.338 183.349H315.416V177.335H317.005ZM321.564 186.287C320.918 186.287 320.358 186.145 319.884 185.86C319.41 185.576 319.042 185.178 318.781 184.667C318.523 184.156 318.393 183.559 318.393 182.875C318.393 182.192 318.523 181.593 318.781 181.079C319.042 180.565 319.41 180.165 319.884 179.881C320.358 179.597 320.918 179.455 321.564 179.455C322.21 179.455 322.77 179.597 323.244 179.881C323.718 180.165 324.084 180.565 324.342 181.079C324.604 181.593 324.734 182.192 324.734 182.875C324.734 183.559 324.604 184.156 324.342 184.667C324.084 185.178 323.718 185.576 323.244 185.86C322.77 186.145 322.21 186.287 321.564 186.287ZM321.572 185.037C321.923 185.037 322.216 184.941 322.451 184.749C322.687 184.554 322.862 184.292 322.977 183.965C323.094 183.637 323.153 183.273 323.153 182.871C323.153 182.466 323.094 182.1 322.977 181.772C322.862 181.442 322.687 181.179 322.451 180.984C322.216 180.789 321.923 180.691 321.572 180.691C321.213 180.691 320.915 180.789 320.676 180.984C320.441 181.179 320.264 181.442 320.147 181.772C320.032 182.1 319.974 182.466 319.974 182.871C319.974 183.273 320.032 183.637 320.147 183.965C320.264 184.292 320.441 184.554 320.676 184.749C320.915 184.941 321.213 185.037 321.572 185.037ZM329.362 179.541V180.747H325.558V179.541H329.362ZM326.497 177.956H328.057V184.167C328.057 184.377 328.088 184.538 328.151 184.65C328.217 184.759 328.304 184.834 328.41 184.874C328.516 184.914 328.634 184.934 328.763 184.934C328.861 184.934 328.95 184.927 329.03 184.913C329.113 184.898 329.177 184.885 329.22 184.874L329.482 186.093C329.399 186.122 329.28 186.153 329.125 186.188C328.973 186.222 328.786 186.242 328.565 186.248C328.174 186.259 327.823 186.201 327.51 186.071C327.196 185.939 326.948 185.735 326.764 185.46C326.583 185.184 326.494 184.839 326.497 184.426V177.956ZM330.666 186.157V179.541H332.225V186.157H330.666ZM331.45 178.602C331.203 178.602 330.99 178.52 330.812 178.356C330.634 178.19 330.545 177.99 330.545 177.757C330.545 177.522 330.634 177.322 330.812 177.159C330.99 176.992 331.203 176.909 331.45 176.909C331.7 176.909 331.912 176.992 332.087 177.159C332.266 177.322 332.355 177.522 332.355 177.757C332.355 177.99 332.266 178.19 332.087 178.356C331.912 178.52 331.7 178.602 331.45 178.602ZM336.715 186.287C336.055 186.287 335.487 186.142 335.013 185.852C334.543 185.562 334.179 185.161 333.924 184.65C333.671 184.136 333.545 183.544 333.545 182.875C333.545 182.203 333.674 181.61 333.932 181.096C334.191 180.579 334.555 180.177 335.026 179.89C335.5 179.6 336.06 179.455 336.706 179.455C337.243 179.455 337.719 179.554 338.132 179.752C338.549 179.947 338.88 180.224 339.127 180.583C339.374 180.939 339.515 181.356 339.549 181.833H338.059C337.999 181.514 337.855 181.248 337.628 181.036C337.404 180.82 337.104 180.713 336.728 180.713C336.409 180.713 336.129 180.799 335.888 180.971C335.647 181.14 335.459 181.385 335.324 181.703C335.192 182.022 335.125 182.404 335.125 182.849C335.125 183.3 335.192 183.688 335.324 184.012C335.456 184.334 335.641 184.582 335.879 184.757C336.121 184.93 336.403 185.016 336.728 185.016C336.958 185.016 337.163 184.973 337.344 184.887C337.528 184.798 337.681 184.67 337.805 184.503C337.928 184.337 338.013 184.134 338.059 183.896H339.549C339.512 184.364 339.374 184.779 339.136 185.141C338.898 185.5 338.573 185.781 338.162 185.985C337.752 186.186 337.269 186.287 336.715 186.287ZM343.759 186.287C343.096 186.287 342.523 186.149 342.04 185.873C341.561 185.595 341.192 185.201 340.933 184.693C340.675 184.182 340.546 183.58 340.546 182.888C340.546 182.207 340.675 181.61 340.933 181.096C341.195 180.579 341.559 180.177 342.027 179.89C342.496 179.6 343.046 179.455 343.677 179.455C344.085 179.455 344.47 179.521 344.832 179.653C345.196 179.782 345.518 179.983 345.797 180.256C346.078 180.529 346.299 180.876 346.46 181.298C346.621 181.718 346.701 182.217 346.701 182.797V183.276H341.278V182.225H345.207C345.204 181.926 345.139 181.66 345.013 181.428C344.886 181.192 344.71 181.007 344.483 180.872C344.259 180.737 343.998 180.669 343.699 180.669C343.38 180.669 343.1 180.747 342.859 180.902C342.618 181.054 342.43 181.255 342.295 181.505C342.162 181.752 342.095 182.024 342.092 182.319V183.237C342.092 183.622 342.162 183.952 342.303 184.228C342.444 184.5 342.641 184.71 342.893 184.857C343.146 185 343.442 185.072 343.781 185.072C344.008 185.072 344.213 185.04 344.397 184.977C344.58 184.911 344.74 184.815 344.875 184.689C345.01 184.562 345.112 184.406 345.181 184.219L346.637 184.383C346.545 184.768 346.37 185.104 346.111 185.391C345.856 185.675 345.528 185.896 345.129 186.054C344.73 186.209 344.273 186.287 343.759 186.287Z" fill="#171A22"/>
<path d="M313.782 203.446C312.971 203.446 312.25 203.314 311.618 203.051C310.989 202.784 310.496 202.421 310.138 201.961C309.78 201.501 309.601 200.98 309.601 200.397C309.601 199.948 309.703 199.535 309.907 199.16C310.114 198.781 310.395 198.467 310.749 198.217C311.104 197.965 311.5 197.803 311.939 197.733V197.659C311.363 197.544 310.896 197.264 310.538 196.822C310.18 196.376 310.001 195.859 310.001 195.269C310.001 194.711 310.165 194.214 310.491 193.779C310.817 193.34 311.265 192.996 311.834 192.747C312.406 192.494 313.055 192.368 313.782 192.368C314.508 192.368 315.156 192.494 315.724 192.747C316.297 193 316.746 193.346 317.072 193.784C317.399 194.22 317.564 194.714 317.567 195.269C317.564 195.862 317.381 196.38 317.02 196.822C316.658 197.264 316.195 197.544 315.63 197.659V197.733C316.061 197.803 316.453 197.965 316.804 198.217C317.158 198.467 317.439 198.781 317.646 199.16C317.857 199.535 317.964 199.948 317.967 200.397C317.964 200.98 317.783 201.501 317.425 201.961C317.067 202.421 316.572 202.784 315.94 203.051C315.312 203.314 314.592 203.446 313.782 203.446ZM313.782 201.771C314.143 201.771 314.459 201.706 314.729 201.576C315 201.443 315.21 201.261 315.361 201.029C315.516 200.794 315.593 200.523 315.593 200.218C315.593 199.906 315.514 199.63 315.356 199.392C315.198 199.149 314.984 198.96 314.714 198.823C314.443 198.682 314.133 198.612 313.782 198.612C313.434 198.612 313.124 198.682 312.85 198.823C312.576 198.96 312.36 199.149 312.202 199.392C312.048 199.63 311.971 199.906 311.971 200.218C311.971 200.523 312.046 200.794 312.197 201.029C312.348 201.261 312.56 201.443 312.834 201.576C313.108 201.706 313.424 201.771 313.782 201.771ZM313.782 196.954C314.084 196.954 314.352 196.892 314.587 196.77C314.822 196.647 315.007 196.476 315.14 196.259C315.273 196.041 315.34 195.79 315.34 195.506C315.34 195.225 315.273 194.979 315.14 194.769C315.007 194.555 314.824 194.388 314.592 194.269C314.361 194.146 314.091 194.084 313.782 194.084C313.476 194.084 313.206 194.146 312.971 194.269C312.736 194.388 312.551 194.555 312.418 194.769C312.288 194.979 312.223 195.225 312.223 195.506C312.223 195.79 312.29 196.041 312.423 196.259C312.557 196.476 312.741 196.647 312.976 196.77C313.211 196.892 313.48 196.954 313.782 196.954ZM323.699 203.446C323.145 203.442 322.61 203.349 322.094 203.166C321.581 202.984 321.121 202.687 320.714 202.277C320.307 201.866 319.984 201.322 319.746 200.645C319.51 199.967 319.393 199.135 319.393 198.149C319.396 197.243 319.5 196.434 319.703 195.722C319.91 195.006 320.205 194.399 320.588 193.9C320.974 193.402 321.436 193.023 321.973 192.763C322.51 192.5 323.112 192.368 323.778 192.368C324.498 192.368 325.133 192.508 325.684 192.789C326.235 193.067 326.678 193.444 327.011 193.921C327.348 194.399 327.552 194.934 327.622 195.527H325.374C325.286 195.151 325.102 194.857 324.821 194.643C324.54 194.428 324.193 194.321 323.778 194.321C323.076 194.321 322.543 194.627 322.178 195.237C321.816 195.848 321.632 196.678 321.625 197.728H321.699C321.86 197.408 322.078 197.136 322.352 196.912C322.629 196.684 322.943 196.51 323.294 196.39C323.649 196.268 324.022 196.206 324.416 196.206C325.054 196.206 325.623 196.357 326.121 196.659C326.62 196.957 327.013 197.368 327.301 197.891C327.589 198.414 327.732 199.012 327.732 199.686C327.732 200.416 327.562 201.066 327.222 201.634C326.885 202.203 326.413 202.649 325.805 202.972C325.202 203.291 324.5 203.449 323.699 203.446ZM323.689 201.655C324.04 201.655 324.354 201.571 324.631 201.403C324.909 201.234 325.126 201.006 325.284 200.718C325.442 200.43 325.521 200.108 325.521 199.75C325.521 199.392 325.442 199.07 325.284 198.786C325.13 198.502 324.916 198.275 324.642 198.107C324.368 197.938 324.056 197.854 323.705 197.854C323.442 197.854 323.198 197.903 322.973 198.002C322.752 198.1 322.557 198.237 322.389 198.412C322.224 198.588 322.094 198.791 321.999 199.023C321.904 199.251 321.857 199.495 321.857 199.755C321.857 200.102 321.936 200.42 322.094 200.708C322.255 200.996 322.473 201.225 322.747 201.397C323.024 201.569 323.338 201.655 323.689 201.655ZM331.359 201.824L331.301 202.403C331.255 202.866 331.167 203.328 331.038 203.788C330.911 204.251 330.778 204.67 330.637 205.046C330.5 205.422 330.39 205.716 330.306 205.931H328.853C328.905 205.723 328.977 205.434 329.068 205.062C329.16 204.693 329.246 204.279 329.326 203.819C329.407 203.36 329.458 202.891 329.479 202.414L329.505 201.824H331.359ZM337.182 203.535C336.276 203.532 335.497 203.309 334.844 202.866C334.195 202.424 333.695 201.784 333.344 200.945C332.996 200.106 332.824 199.097 332.828 197.917C332.828 196.741 333.001 195.739 333.349 194.911C333.7 194.083 334.2 193.453 334.849 193.021C335.502 192.586 336.28 192.368 337.182 192.368C338.084 192.368 338.859 192.586 339.509 193.021C340.162 193.456 340.664 194.088 341.015 194.916C341.366 195.741 341.539 196.741 341.536 197.917C341.536 199.1 341.36 200.111 341.009 200.95C340.662 201.789 340.163 202.429 339.514 202.872C338.865 203.314 338.087 203.535 337.182 203.535ZM337.182 201.645C337.799 201.645 338.293 201.334 338.661 200.713C339.03 200.092 339.212 199.16 339.209 197.917C339.209 197.1 339.124 196.419 338.956 195.875C338.791 195.33 338.556 194.922 338.25 194.648C337.949 194.374 337.592 194.237 337.182 194.237C336.567 194.237 336.076 194.544 335.708 195.158C335.339 195.773 335.153 196.692 335.149 197.917C335.149 198.746 335.232 199.437 335.397 199.992C335.565 200.543 335.802 200.957 336.108 201.234C336.413 201.508 336.771 201.645 337.182 201.645ZM347.1 203.446C346.355 203.446 345.692 203.309 345.109 203.035C344.53 202.761 344.07 202.384 343.73 201.903C343.389 201.422 343.212 200.871 343.198 200.25H345.409C345.434 200.667 345.61 201.006 345.936 201.266C346.262 201.526 346.65 201.655 347.1 201.655C347.458 201.655 347.773 201.576 348.047 201.419C348.325 201.257 348.54 201.034 348.695 200.75C348.853 200.462 348.932 200.132 348.932 199.76C348.932 199.381 348.851 199.048 348.69 198.76C348.532 198.472 348.312 198.247 348.031 198.086C347.751 197.924 347.429 197.842 347.068 197.838C346.752 197.838 346.445 197.903 346.147 198.033C345.852 198.163 345.622 198.34 345.457 198.565L343.43 198.202L343.941 192.515H350.532V194.379H345.82L345.541 197.08H345.604C345.794 196.813 346.08 196.592 346.462 196.417C346.845 196.241 347.273 196.154 347.747 196.154C348.396 196.154 348.976 196.306 349.485 196.612C349.993 196.917 350.395 197.336 350.69 197.87C350.985 198.4 351.131 199.011 351.127 199.702C351.131 200.429 350.962 201.075 350.622 201.64C350.285 202.201 349.813 202.643 349.206 202.966C348.602 203.286 347.9 203.446 347.1 203.446ZM356.703 203.446C355.917 203.446 355.216 203.31 354.602 203.04C353.991 202.766 353.509 202.391 353.154 201.913C352.803 201.433 352.622 200.878 352.612 200.25H354.907C354.921 200.513 355.007 200.745 355.165 200.945C355.327 201.141 355.541 201.294 355.808 201.403C356.074 201.512 356.375 201.566 356.708 201.566C357.056 201.566 357.363 201.505 357.629 201.382C357.896 201.259 358.105 201.089 358.256 200.871C358.407 200.653 358.482 200.402 358.482 200.118C358.482 199.83 358.402 199.576 358.24 199.355C358.082 199.13 357.854 198.955 357.556 198.828C357.261 198.702 356.91 198.639 356.503 198.639H355.497V196.964H356.503C356.847 196.964 357.15 196.905 357.414 196.785C357.68 196.666 357.887 196.501 358.035 196.29C358.182 196.076 358.256 195.827 358.256 195.543C358.256 195.273 358.191 195.036 358.061 194.832C357.935 194.625 357.756 194.464 357.524 194.348C357.296 194.232 357.029 194.174 356.724 194.174C356.415 194.174 356.132 194.23 355.876 194.342C355.62 194.451 355.415 194.607 355.26 194.811C355.106 195.015 355.023 195.253 355.013 195.527H352.828C352.838 194.906 353.016 194.358 353.36 193.884C353.704 193.411 354.167 193.04 354.749 192.773C355.336 192.503 355.997 192.368 356.734 192.368C357.478 192.368 358.13 192.503 358.688 192.773C359.246 193.044 359.679 193.409 359.988 193.869C360.3 194.325 360.455 194.837 360.451 195.406C360.455 196.01 360.267 196.513 359.888 196.917C359.513 197.321 359.023 197.577 358.419 197.686V197.77C359.212 197.872 359.816 198.147 360.23 198.597C360.648 199.042 360.855 199.6 360.852 200.271C360.855 200.885 360.678 201.431 360.32 201.908C359.965 202.386 359.476 202.761 358.851 203.035C358.226 203.309 357.51 203.446 356.703 203.446Z" fill="#00A8FF"/>
<rect x="18.9832" y="210.62" width="131.101" height="0.507612" fill="#E9EBEF"/>
<rect x="18.9832" y="246.661" width="131.101" height="0.507612" fill="#E9EBEF"/>
<path d="M20.4836 243.106C36.2158 243.106 41.4598 213.918 48.5767 213.918C56.0682 213.918 56.4428 231.938 65.058 231.938C73.6732 231.938 73.2987 225.593 83.0376 225.593C92.7765 225.593 90.1545 235.745 101.766 235.745C111.056 235.745 113.878 237.099 114.127 237.776C117.124 239.552 124.391 243.106 129.485 243.106C134.579 243.106 137.85 243.106 138.849 243.106H149.337" stroke="#F51A38" stroke-width="1.34783"/>
<rect x="163.935" y="210.62" width="131.101" height="0.507612" fill="#E9EBEF"/>
<rect x="163.935" y="246.661" width="131.101" height="0.507612" fill="#E9EBEF"/>
<path d="M165.435 243.077C182.013 243.077 186.157 213.636 194.446 213.636C198.214 213.636 201.605 219.219 212.154 219.219C224.587 219.219 223.532 233.128 229.862 232.925C237.774 232.671 240.411 221.758 251.714 222.011C263.017 222.265 265.655 234.702 272.06 236.986C278.465 239.27 278.088 237.747 284.116 238.509C288.939 239.118 292.907 241.808 294.289 243.077" stroke="#FF642D" stroke-width="1.34783"/>
<rect x="308.885" y="210.62" width="131.101" height="0.507612" fill="#E9EBEF"/>
<rect x="308.885" y="246.661" width="131.101" height="0.507612" fill="#E9EBEF"/>
<path d="M310.386 222.266C312.515 224.043 317.523 227.596 320.529 227.596C329.92 227.596 326.539 213.891 338.936 213.891C346.456 213.891 357.595 213.806 362.228 213.891C371.995 213.891 376.879 218.205 381.387 218.205C387.022 218.205 391.154 213.891 399.794 213.891C413.694 213.891 410.313 233.941 416.324 236.987C422.334 240.033 423.086 238.51 427.969 238.764C431.876 238.967 437.111 241.555 439.239 242.824" stroke="#00A8FF" stroke-width="1.34783"/>
</svg>
